<svg width="39" height="52" viewBox="0 0 39 52" fill="none" xmlns="http://www.w3.org/2000/svg">
<path d="M35.7949 1.43918C35.7949 2.08261 36.3165 2.60422 36.96 2.60422V2.60422C37.6034 2.60422 38.125 3.12582 38.125 3.76926V48.1399C38.125 49.7967 36.7819 51.1399 35.125 51.1399H3.875C2.21815 51.1399 0.875 49.7967 0.875 48.1399V3.79611C0.875 3.13785 1.40863 2.60422 2.06689 2.60422V2.60422C2.72516 2.60422 3.25879 2.07059 3.25879 1.41232V1.35861C3.25879 0.685515 3.80444 0.139862 4.47754 0.139862V0.139862C5.15064 0.139862 5.69629 0.692192 5.69629 1.36529V1.36529C5.69629 2.0458 6.24795 2.60422 6.92847 2.60422H12.3928C13.0733 2.60422 13.625 2.0458 13.625 1.36529V1.36529C13.625 0.692192 14.1707 0.139862 14.8438 0.139862V0.139862C15.5168 0.139862 16.0625 0.692192 16.0625 1.36529V1.36529C16.0625 2.0458 16.6142 2.60422 17.2947 2.60422H21.759C22.4395 2.60422 22.9912 2.0458 22.9912 1.36529V1.36529C22.9912 0.692192 23.5369 0.139862 24.21 0.139862V0.139862C24.8831 0.139862 25.4287 0.692192 25.4287 1.36529V1.36529C25.4287 2.0458 25.9804 2.60422 26.6609 2.60422H32.1252C32.8058 2.60422 33.3574 2.0458 33.3574 1.36529V1.36529C33.3574 0.692192 33.9031 0.139862 34.5762 0.139862V0.139862C35.2493 0.139862 35.7949 0.685515 35.7949 1.35861V1.43918ZM33.6875 49.7024C35.3444 49.7024 36.6875 48.3592 36.6875 46.7024V7.04172C36.6875 5.38486 35.3444 4.04172 33.6875 4.04172H5.3125C3.65564 4.04172 2.3125 5.38486 2.3125 7.04172V46.7024C2.3125 48.3592 3.65565 49.7024 5.3125 49.7024H33.6875ZM28.5937 11.9167C29.2668 11.9167 29.8125 12.4624 29.8125 13.1355V13.1355C29.8125 13.8086 29.2668 14.3542 28.5938 14.3542H10.4063C9.73315 14.3542 9.1875 13.8086 9.1875 13.1355V13.1355C9.1875 12.4624 9.73315 11.9167 10.4062 11.9167H28.5937ZM10.4063 41.8811C9.73315 41.8811 9.1875 41.3354 9.1875 40.6623V40.6623C9.1875 39.9892 9.73315 39.4436 10.4062 39.4436H28.5937C29.2668 39.4436 29.8125 39.9892 29.8125 40.6623V40.6623C29.8125 41.3354 29.2668 41.8811 28.5938 41.8811H10.4063ZM10.4063 28.1042C9.73315 28.1042 9.1875 27.5586 9.1875 26.8855V26.8855C9.1875 26.2124 9.73315 25.6667 10.4062 25.6667H28.5937C29.2668 25.6667 29.8125 26.2124 29.8125 26.8855V26.8855C29.8125 27.5586 29.2668 28.1042 28.5938 28.1042H10.4063Z" fill="#201C26"/>
<path fill-rule="evenodd" clip-rule="evenodd" d="M33.6875 49.7024C35.3444 49.7024 36.6875 48.3592 36.6875 46.7024V7.04172C36.6875 5.38486 35.3444 4.04172 33.6875 4.04172H5.3125C3.65564 4.04172 2.3125 5.38486 2.3125 7.04172V46.7024C2.3125 48.3592 3.65565 49.7024 5.3125 49.7024H33.6875ZM28.5938 14.3542C29.2668 14.3542 29.8125 13.8086 29.8125 13.1355V13.1355C29.8125 12.4624 29.2668 11.9167 28.5937 11.9167H10.4062C9.73315 11.9167 9.1875 12.4624 9.1875 13.1355V13.1355C9.1875 13.8086 9.73315 14.3542 10.4063 14.3542H28.5938ZM10.4062 39.4436C9.73315 39.4436 9.1875 39.9892 9.1875 40.6623V40.6623C9.1875 41.3354 9.73315 41.8811 10.4063 41.8811H28.5938C29.2668 41.8811 29.8125 41.3354 29.8125 40.6623V40.6623C29.8125 39.9892 29.2668 39.4436 28.5937 39.4436H10.4062ZM10.4062 25.6667C9.73315 25.6667 9.1875 26.2124 9.1875 26.8855V26.8855C9.1875 27.5586 9.73315 28.1042 10.4063 28.1042H28.5938C29.2668 28.1042 29.8125 27.5586 29.8125 26.8855V26.8855C29.8125 26.2124 29.2668 25.6667 28.5937 25.6667H10.4062Z" fill="#D4AF37"/>
</svg>
