<svg width="31" height="43" viewBox="0 0 31 43" fill="none" xmlns="http://www.w3.org/2000/svg">
<path d="M28.8326 1.83931C28.8326 2.36575 29.2593 2.79252 29.7858 2.79252V2.79252C30.3122 2.79252 30.739 3.21929 30.739 3.74573V39.5035C30.739 41.1604 29.3958 42.5035 27.739 42.5035H3.26172C1.60486 42.5035 0.261719 41.1604 0.261719 39.5035V3.76771C0.261719 3.22913 0.698324 2.79252 1.23691 2.79252V2.79252C1.77549 2.79252 2.21209 2.35591 2.21209 1.81733V1.77339C2.21209 1.22267 2.65853 0.77623 3.20925 0.77623V0.77623C3.75997 0.77623 4.20641 1.22814 4.20641 1.77885V1.77885C4.20641 2.33564 4.65777 2.79252 5.21456 2.79252H9.68539C10.2422 2.79252 10.6935 2.33564 10.6935 1.77885V1.77885C10.6935 1.22814 11.14 0.77623 11.6907 0.77623V0.77623C12.2414 0.77623 12.6879 1.22814 12.6879 1.77885V1.77885C12.6879 2.33564 13.1392 2.79252 13.696 2.79252H17.3487C17.9054 2.79252 18.3568 2.33564 18.3568 1.77885V1.77885C18.3568 1.22814 18.8032 0.77623 19.354 0.77623V0.77623C19.9047 0.77623 20.3511 1.22814 20.3511 1.77885V1.77885C20.3511 2.33564 20.8025 2.79252 21.3593 2.79252H25.8301C26.3869 2.79252 26.8382 2.33564 26.8382 1.77885V1.77885C26.8382 1.22814 27.2847 0.77623 27.8354 0.77623V0.77623C28.3861 0.77623 28.8326 1.22267 28.8326 1.77339V1.83931ZM26.5629 41.3274C28.2197 41.3274 29.5629 39.9842 29.5629 38.3274V6.96865C29.5629 5.3118 28.2197 3.96866 26.5629 3.96866H4.43786C2.781 3.96866 1.43786 5.3118 1.43786 6.96866V38.3274C1.43786 39.9842 2.781 41.3274 4.43786 41.3274H26.5629ZM22.9407 10.4118C23.4914 10.4118 23.9379 10.8583 23.9379 11.409V11.409C23.9379 11.9597 23.4914 12.4062 22.9407 12.4062H8.06002C7.5093 12.4062 7.06286 11.9597 7.06286 11.409V11.409C7.06286 10.8583 7.5093 10.4118 8.06001 10.4118H22.9407ZM8.06002 34.9281C7.5093 34.9281 7.06286 34.4817 7.06286 33.931V33.931C7.06286 33.3803 7.5093 32.9338 8.06001 32.9338H22.9407C23.4914 32.9338 23.9379 33.3803 23.9379 33.931V33.931C23.9379 34.4817 23.4914 34.9281 22.9407 34.9281H8.06002ZM8.06002 23.6562C7.5093 23.6562 7.06286 23.2097 7.06286 22.659V22.659C7.06286 22.1083 7.5093 21.6618 8.06001 21.6618H22.9407C23.4914 21.6618 23.9379 22.1083 23.9379 22.659V22.659C23.9379 23.2097 23.4914 23.6562 22.9407 23.6562H8.06002Z" fill="#201C26"/>
<path fill-rule="evenodd" clip-rule="evenodd" d="M26.5629 41.3274C28.2197 41.3274 29.5629 39.9842 29.5629 38.3274V6.96865C29.5629 5.3118 28.2197 3.96866 26.5629 3.96866H4.43786C2.781 3.96866 1.43786 5.3118 1.43786 6.96866V38.3274C1.43786 39.9842 2.781 41.3274 4.43786 41.3274H26.5629ZM22.9407 12.4062C23.4914 12.4062 23.9379 11.9597 23.9379 11.409V11.409C23.9379 10.8583 23.4914 10.4118 22.9407 10.4118H8.06001C7.5093 10.4118 7.06286 10.8583 7.06286 11.409V11.409C7.06286 11.9597 7.5093 12.4062 8.06002 12.4062H22.9407ZM8.06001 32.9338C7.5093 32.9338 7.06286 33.3803 7.06286 33.931V33.931C7.06286 34.4817 7.5093 34.9281 8.06002 34.9281H22.9407C23.4914 34.9281 23.9379 34.4817 23.9379 33.931V33.931C23.9379 33.3803 23.4914 32.9338 22.9407 32.9338H8.06001ZM8.06001 21.6618C7.5093 21.6618 7.06286 22.1083 7.06286 22.659V22.659C7.06286 23.2097 7.5093 23.6562 8.06002 23.6562H22.9407C23.4914 23.6562 23.9379 23.2097 23.9379 22.659V22.659C23.9379 22.1083 23.4914 21.6618 22.9407 21.6618H8.06001Z" fill="#1895CA"/>
</svg>
