<svg width="25" height="33" viewBox="0 0 25 33" fill="none" xmlns="http://www.w3.org/2000/svg">
<path d="M22.8692 1.23944C22.8692 1.64889 23.2012 1.98082 23.6106 1.98082V1.98082C24.0201 1.98082 24.352 2.31275 24.352 2.72221V29.8671C24.352 31.524 23.0089 32.8671 21.352 32.8671H3.64746C1.99061 32.8671 0.647461 31.524 0.647461 29.8671V2.7393C0.647461 2.32041 0.987043 1.98082 1.40594 1.98082V1.98082C1.82484 1.98082 2.16442 1.64124 2.16442 1.22235V1.18817C2.16442 0.759831 2.51165 0.412598 2.93999 0.412598V0.412598C3.36832 0.412598 3.71555 0.764081 3.71555 1.19241V1.19241C3.71555 1.62547 4.06661 1.98082 4.49967 1.98082H7.97698C8.41004 1.98082 8.7611 1.62547 8.7611 1.19241V1.19241C8.7611 0.76408 9.10833 0.412598 9.53667 0.412598V0.412598C9.965 0.412598 10.3122 0.764081 10.3122 1.19241V1.19241C10.3122 1.62547 10.6633 1.98082 11.0963 1.98082H13.9373C14.3704 1.98082 14.7214 1.62547 14.7214 1.19241V1.19241C14.7214 0.76408 15.0686 0.412598 15.497 0.412598V0.412598C15.9253 0.412598 16.2725 0.764081 16.2725 1.19241V1.19241C16.2725 1.62547 16.6236 1.98082 17.0567 1.98082H20.534C20.967 1.98082 21.3181 1.62547 21.3181 1.19241V1.19241C21.3181 0.76408 21.6653 0.412598 22.0937 0.412598V0.412598C22.522 0.412598 22.8692 0.759831 22.8692 1.18817V1.23944ZM20.4372 31.9524C22.0941 31.9524 23.4372 30.6092 23.4372 28.9524V5.8956C23.4372 4.23874 22.0941 2.8956 20.4372 2.8956H4.56223C2.90538 2.8956 1.56223 4.23874 1.56223 5.8956V28.9524C1.56223 30.6092 2.90538 31.9524 4.56223 31.9524H20.4372ZM18.2867 7.90696C18.715 7.90696 19.0622 8.25419 19.0622 8.68253V8.68253C19.0622 9.11086 18.715 9.4581 18.2867 9.4581H6.7128C6.28447 9.4581 5.93723 9.11086 5.93723 8.68253V8.68253C5.93723 8.25419 6.28447 7.90696 6.7128 7.90696H18.2867ZM6.7128 26.9752C6.28447 26.9752 5.93723 26.628 5.93723 26.1996V26.1996C5.93723 25.7713 6.28447 25.424 6.7128 25.424H18.2867C18.715 25.424 19.0622 25.7713 19.0622 26.1996V26.1996C19.0622 26.628 18.715 26.9752 18.2867 26.9752H6.7128ZM6.7128 18.2081C6.28447 18.2081 5.93723 17.8609 5.93723 17.4325V17.4325C5.93723 17.0042 6.28447 16.657 6.7128 16.657H18.2867C18.715 16.657 19.0622 17.0042 19.0622 17.4325V17.4325C19.0622 17.8609 18.715 18.2081 18.2867 18.2081H6.7128Z" fill="#201C26"/>
<path fill-rule="evenodd" clip-rule="evenodd" d="M20.4372 31.9524C22.0941 31.9524 23.4372 30.6092 23.4372 28.9524V5.8956C23.4372 4.23874 22.0941 2.8956 20.4372 2.8956H4.56223C2.90538 2.8956 1.56223 4.23874 1.56223 5.8956V28.9524C1.56223 30.6092 2.90538 31.9524 4.56223 31.9524H20.4372ZM18.2867 9.4581C18.715 9.4581 19.0622 9.11086 19.0622 8.68253V8.68253C19.0622 8.25419 18.715 7.90696 18.2867 7.90696H6.7128C6.28447 7.90696 5.93723 8.25419 5.93723 8.68253V8.68253C5.93723 9.11086 6.28447 9.4581 6.7128 9.4581H18.2867ZM6.7128 25.424C6.28447 25.424 5.93723 25.7713 5.93723 26.1996V26.1996C5.93723 26.628 6.28447 26.9752 6.7128 26.9752H18.2867C18.715 26.9752 19.0622 26.628 19.0622 26.1996V26.1996C19.0622 25.7713 18.715 25.424 18.2867 25.424H6.7128ZM6.7128 16.657C6.28447 16.657 5.93723 17.0042 5.93723 17.4325V17.4325C5.93723 17.8609 6.28447 18.2081 6.7128 18.2081H18.2867C18.715 18.2081 19.0622 17.8609 19.0622 17.4325V17.4325C19.0622 17.0042 18.715 16.657 18.2867 16.657H6.7128Z" fill="#FA561A"/>
</svg>
