<svg width="23" height="43" viewBox="0 0 23 43" fill="none" xmlns="http://www.w3.org/2000/svg">
<path d="M21.2771 2.0935C21.2771 2.47956 21.5901 2.79252 21.9762 2.79252V2.79252C22.3622 2.79252 22.6752 3.10548 22.6752 3.49154V39.5035C22.6752 41.1604 21.3321 42.5035 19.6752 42.5035H3.3252C1.66834 42.5035 0.325195 41.1604 0.325195 39.5035V3.50766C0.325195 3.1127 0.645373 2.79252 1.04033 2.79252V2.79252C1.43529 2.79252 1.75547 2.47234 1.75547 2.07738V1.50748C1.75547 1.10362 2.08286 0.77623 2.48672 0.77623V0.77623C2.89058 0.77623 3.21797 1.10362 3.21797 1.50748V1.78438C3.21797 2.34116 3.66933 2.79252 4.22611 2.79252H6.96705C7.52383 2.79252 7.9752 2.34116 7.9752 1.78437V1.50748C7.9752 1.10362 8.30259 0.77623 8.70645 0.77623V0.77623C9.1103 0.77623 9.4377 1.10362 9.4377 1.50748V1.78438C9.4377 2.34116 9.88906 2.79252 10.4458 2.79252H12.5868C13.1436 2.79252 13.5949 2.34116 13.5949 1.78437V1.50748C13.5949 1.10362 13.9223 0.77623 14.3262 0.77623V0.77623C14.73 0.77623 15.0574 1.10362 15.0574 1.50748V1.78438C15.0574 2.34116 15.5088 2.79252 16.0656 2.79252H18.8065C19.3633 2.79252 19.8146 2.34116 19.8146 1.78437V1.50748C19.8146 1.10362 20.142 0.77623 20.5459 0.77623V0.77623C20.9498 0.77623 21.2771 1.10362 21.2771 1.50748V2.0935ZM18.8127 41.3274C20.4696 41.3274 21.8127 39.9842 21.8127 38.3274V6.96865C21.8127 5.3118 20.4696 3.96866 18.8127 3.96866H4.1877C2.53084 3.96866 1.1877 5.3118 1.1877 6.96866V38.3274C1.1877 39.9842 2.53084 41.3274 4.1877 41.3274H18.8127ZM16.6905 10.4118C17.2413 10.4118 17.6877 10.8583 17.6877 11.409V11.409C17.6877 11.9597 17.2413 12.4062 16.6905 12.4062H6.30985C5.75914 12.4062 5.3127 11.9597 5.3127 11.409V11.409C5.3127 10.8583 5.75914 10.4118 6.30985 10.4118H16.6905ZM6.30985 34.9281C5.75914 34.9281 5.3127 34.4817 5.3127 33.931V33.931C5.3127 33.3803 5.75914 32.9338 6.30985 32.9338H16.6905C17.2413 32.9338 17.6877 33.3803 17.6877 33.931V33.931C17.6877 34.4817 17.2413 34.9281 16.6905 34.9281H6.30985ZM6.30985 23.6562C5.75914 23.6562 5.3127 23.2097 5.3127 22.659V22.659C5.3127 22.1083 5.75914 21.6618 6.30985 21.6618H16.6905C17.2413 21.6618 17.6877 22.1083 17.6877 22.659V22.659C17.6877 23.2097 17.2413 23.6562 16.6905 23.6562H6.30985Z" fill="#201C26"/>
<path fill-rule="evenodd" clip-rule="evenodd" d="M18.8127 41.3274C20.4696 41.3274 21.8127 39.9842 21.8127 38.3274V6.96865C21.8127 5.3118 20.4696 3.96866 18.8127 3.96866H4.1877C2.53084 3.96866 1.1877 5.3118 1.1877 6.96866V38.3274C1.1877 39.9842 2.53084 41.3274 4.1877 41.3274H18.8127ZM16.6905 12.4062C17.2413 12.4062 17.6877 11.9597 17.6877 11.409V11.409C17.6877 10.8583 17.2413 10.4118 16.6905 10.4118H6.30985C5.75914 10.4118 5.3127 10.8583 5.3127 11.409V11.409C5.3127 11.9597 5.75914 12.4062 6.30985 12.4062H16.6905ZM6.30985 32.9338C5.75914 32.9338 5.3127 33.3803 5.3127 33.931V33.931C5.3127 34.4817 5.75914 34.9281 6.30985 34.9281H16.6905C17.2413 34.9281 17.6877 34.4817 17.6877 33.931V33.931C17.6877 33.3803 17.2413 32.9338 16.6905 32.9338H6.30985ZM6.30985 21.6618C5.75914 21.6618 5.3127 22.1083 5.3127 22.659V22.659C5.3127 23.2097 5.75914 23.6562 6.30985 23.6562H16.6905C17.2413 23.6562 17.6877 23.2097 17.6877 22.659V22.659C17.6877 22.1083 17.2413 21.6618 16.6905 21.6618H6.30985Z" fill="#20B2AA"/>
</svg>
