<svg width="60" height="60" viewBox="0 0 60 60" fill="none" xmlns="http://www.w3.org/2000/svg">
<path d="M46.155 13.8328C42.6825 10.3618 38.2586 7.99848 33.4429 7.04165C28.6272 6.08482 23.6359 6.57748 19.1002 8.45733C14.5645 10.3372 10.688 13.5198 7.96109 17.6027C5.23413 21.6856 3.77911 26.4855 3.78003 31.3953C3.78003 37.9805 6.39511 44.2961 11.0503 48.9537C15.7056 53.6113 22.0199 56.2295 28.605 56.2328C31.8636 56.2329 35.0908 55.596 38.105 54.3578C41.1089 53.0891 43.8416 51.256 46.155 48.9578C48.4616 46.6516 50.2913 43.9137 51.5397 40.9003C52.788 37.8869 53.4305 34.6571 53.4305 31.3953C53.4305 28.1336 52.788 24.9038 51.5397 21.8904C50.2913 18.877 48.4616 16.139 46.155 13.8328ZM44.405 47.1828C40.8303 50.7732 36.1395 53.0392 31.105 53.6078V37.2078H35.805C36.4681 37.2078 37.104 36.9444 37.5728 36.4756C38.0416 36.0068 38.305 35.3709 38.305 34.7078C38.305 34.0448 38.0416 33.4089 37.5728 32.9401C37.104 32.4712 36.4681 32.2078 35.805 32.2078H31.105V25.3578C31.105 24.6948 31.3684 24.0589 31.8373 23.5901C32.3061 23.1212 32.942 22.8578 33.605 22.8578H36.605C37.2681 22.8578 37.904 22.5944 38.3728 22.1256C38.8416 21.6568 39.105 21.0209 39.105 20.3578C39.105 19.6948 38.8416 19.0589 38.3728 18.5901C37.904 18.1212 37.2681 17.8578 36.605 17.8578H32.355C30.6974 17.8578 29.1077 18.5163 27.9356 19.6884C26.7635 20.8605 26.105 22.4502 26.105 24.1078V32.2078H21.43C20.767 32.2078 20.1311 32.4712 19.6623 32.9401C19.1934 33.4089 18.93 34.0448 18.93 34.7078C18.93 35.3709 19.1934 36.0068 19.6623 36.4756C20.1311 36.9444 20.767 37.2078 21.43 37.2078H26.105V53.6078C21.4623 53.0782 17.1032 51.1032 13.6437 47.962C10.1841 44.8208 7.79881 40.6721 6.82478 36.1018C5.85075 31.5316 6.33717 26.7708 8.21536 22.492C10.0935 18.2132 13.2685 14.6325 17.2919 12.2559C21.3153 9.87923 25.9836 8.82668 30.6376 9.24688C35.2915 9.66709 39.6959 11.5388 43.2285 14.5977C46.761 17.6566 49.2433 21.748 50.3247 26.294C51.4061 30.8401 51.0319 35.611 49.255 39.9328C48.1211 42.6397 46.4742 45.1016 44.405 47.1828Z" fill="#D769ED"/>
<path d="M47.55 12.4373C44.0775 8.96632 39.6537 6.60297 34.8379 5.64614C30.0222 4.68931 25.0309 5.18197 20.4952 7.06182C15.9595 8.94167 12.0831 12.1243 9.35611 16.2072C6.62915 20.2901 5.17413 25.09 5.17505 29.9998C5.17505 36.585 7.79013 42.9006 12.4454 47.5582C17.1006 52.2157 23.4149 54.834 30 54.8373C33.2586 54.8374 36.4858 54.2005 39.5 52.9623C42.504 51.6936 45.2367 49.8605 47.55 47.5623C49.8566 45.2561 51.6864 42.5181 52.9347 39.5048C54.183 36.4914 54.8256 33.2616 54.8256 29.9998C54.8256 26.7381 54.183 23.5083 52.9347 20.4949C51.6864 17.4815 49.8566 14.7435 47.55 12.4373ZM45.8 45.7873C42.2253 49.3777 37.5345 51.6437 32.5 52.2123V35.8123H37.2C37.8631 35.8123 38.499 35.5489 38.9678 35.0801C39.4367 34.6112 39.7 33.9754 39.7 33.3123C39.7 32.6493 39.4367 32.0134 38.9678 31.5446C38.499 31.0757 37.8631 30.8123 37.2 30.8123H32.5V23.9623C32.5 23.2993 32.7634 22.6634 33.2323 22.1946C33.7011 21.7257 34.337 21.4623 35 21.4623H38C38.6631 21.4623 39.299 21.1989 39.7678 20.7301C40.2367 20.2613 40.5001 19.6254 40.5001 18.9623C40.5001 18.2993 40.2367 17.6634 39.7678 17.1946C39.299 16.7257 38.6631 16.4623 38 16.4623H33.75C32.0924 16.4623 30.5027 17.1208 29.3306 18.2929C28.1585 19.465 27.5 21.0547 27.5 22.7123V30.8123H22.825C22.162 30.8123 21.5261 31.0757 21.0573 31.5446C20.5884 32.0134 20.325 32.6493 20.325 33.3123C20.325 33.9754 20.5884 34.6112 21.0573 35.0801C21.5261 35.5489 22.162 35.8123 22.825 35.8123H27.5V52.2123C22.8573 51.6826 18.4982 49.7077 15.0387 46.5665C11.5791 43.4253 9.19383 39.2765 8.2198 34.7063C7.24577 30.1361 7.73219 25.3753 9.61038 21.0965C11.4886 16.8176 14.6636 13.237 18.6869 10.8604C22.7103 8.48373 27.3786 7.43117 32.0326 7.85137C36.6866 8.27158 41.0909 10.1433 44.6235 13.2022C48.1561 16.2611 50.6384 20.3525 51.7197 24.8985C52.8011 29.4446 52.4269 34.2155 50.65 38.5373C49.5161 41.2442 47.8692 43.7061 45.8 45.7873Z" fill="#201C26"/>
</svg>
