<svg width="60" height="60" viewBox="0 0 60 60" fill="none" xmlns="http://www.w3.org/2000/svg">
<path d="M28.6048 19.9654C25.6093 20.0196 22.7547 21.2477 20.6555 23.3853C18.5562 25.523 17.38 28.3993 17.38 31.3954C17.38 34.3914 18.5562 37.2677 20.6555 39.4054C22.7547 41.543 25.6093 42.7711 28.6048 42.8254C31.6004 42.7711 34.455 41.543 36.5542 39.4054C38.6535 37.2677 39.8297 34.3914 39.8297 31.3954C39.8297 28.3993 38.6535 25.523 36.5542 23.3853C34.455 21.2477 31.6004 20.0196 28.6048 19.9654ZM28.6048 39.7954C26.377 39.7954 24.2404 38.9104 22.6651 37.3351C21.0898 35.7598 20.2048 33.6232 20.2048 31.3954C20.2048 29.1675 21.0898 27.031 22.6651 25.4557C24.2404 23.8804 26.377 22.9954 28.6048 22.9954C30.8327 22.9954 32.9692 23.8804 34.5445 25.4557C36.1198 27.031 37.0048 29.1675 37.0048 31.3954C37.0048 33.6232 36.1198 35.7598 34.5445 37.3351C32.9692 38.9104 30.8327 39.7954 28.6048 39.7954ZM44.6848 5.74536H12.523C11.2532 5.74561 9.99585 5.99596 8.8228 6.48212C7.64975 6.96828 6.58395 7.68072 5.68624 8.57878C4.78853 9.47684 4.07649 10.5429 3.59079 11.7162C3.10508 12.8894 2.85522 14.1468 2.85547 15.4166V47.3704C2.85547 52.7141 7.18672 57.0379 12.523 57.0379H44.6848C50.0286 57.0379 54.3523 52.7066 54.3523 47.3722V15.4204C54.3523 10.0766 50.0267 5.74536 44.6848 5.74536ZM40.2973 11.5091C40.2973 10.3747 41.2161 9.45224 42.3542 9.45224H48.3917C49.5242 9.45224 50.4467 10.371 50.4467 11.5091V17.5466C50.4467 18.6791 49.528 19.6016 48.388 19.6016H42.3505C41.2198 19.6016 40.2955 18.6829 40.2955 17.5447L40.2973 11.5091ZM52.2973 47.3722C52.2973 51.5685 48.8848 54.9847 44.6848 54.9847H12.523C10.5046 54.9827 8.5695 54.1801 7.14231 52.7529C5.71512 51.3257 4.91245 49.3906 4.91047 47.3722V21.7954H6.46109C6.65234 20.8579 7.48109 20.1491 8.47672 20.1491H14.923C15.9167 20.1491 16.7492 20.856 16.9367 21.7935H19.7455C22.0742 19.6429 25.183 18.3266 28.6048 18.3266C32.0267 18.3266 35.1298 19.6391 37.4605 21.7897H52.2955V47.3704H52.2992L52.2973 47.3722Z" fill="#D769ED"/>
<path d="M30.0001 18.5699C27.0045 18.6241 24.15 19.8522 22.0507 21.9898C19.9515 24.1275 18.7753 27.0038 18.7753 29.9999C18.7753 32.9959 19.9515 35.8722 22.0507 38.0099C24.15 40.1475 27.0045 41.3756 30.0001 41.4299C32.9957 41.3756 35.8502 40.1475 37.9495 38.0099C40.0488 35.8722 41.2249 32.9959 41.2249 29.9999C41.2249 27.0038 40.0488 24.1275 37.9495 21.9898C35.8502 19.8522 32.9957 18.6241 30.0001 18.5699ZM30.0001 38.3999C27.7723 38.3999 25.6357 37.5149 24.0604 35.9396C22.4851 34.3642 21.6001 32.2277 21.6001 29.9999C21.6001 27.772 22.4851 25.6355 24.0604 24.0602C25.6357 22.4849 27.7723 21.5999 30.0001 21.5999C32.2279 21.5999 34.3645 22.4849 35.9398 24.0602C37.5151 25.6355 38.4001 27.772 38.4001 29.9999C38.4001 32.2277 37.5151 34.3642 35.9398 35.9396C34.3645 37.5149 32.2279 38.3999 30.0001 38.3999ZM46.0801 4.34985H13.9182C12.6484 4.3501 11.3911 4.60045 10.2181 5.08661C9.04502 5.57277 7.97921 6.28522 7.0815 7.18327C6.18379 8.08133 5.47176 9.14741 4.98605 10.3207C4.50035 11.4939 4.25049 12.7513 4.25073 14.0211V45.9749C4.25073 51.3186 8.58198 55.6424 13.9182 55.6424H46.0801C51.4239 55.6424 55.7476 51.3111 55.7476 45.9767V14.0249C55.7476 8.6811 51.422 4.34985 46.0801 4.34985ZM41.6926 10.1136C41.6926 8.97923 42.6114 8.05673 43.7495 8.05673H49.787C50.9195 8.05673 51.842 8.97548 51.842 10.1136V16.1511C51.842 17.2836 50.9232 18.2061 49.7832 18.2061H43.7457C42.6151 18.2061 41.6907 17.2874 41.6907 16.1492L41.6926 10.1136ZM53.6926 45.9767C53.6926 50.173 50.2801 53.5892 46.0801 53.5892H13.9182C11.8999 53.5872 9.96476 52.7846 8.53757 51.3574C7.11038 49.9302 6.30772 47.9951 6.30573 45.9767V20.3999H7.85636C8.04761 19.4624 8.87636 18.7536 9.87198 18.7536H16.3182C17.312 18.7536 18.1445 19.4605 18.332 20.398H21.1407C23.4695 18.2474 26.5782 16.9311 30.0001 16.9311C33.422 16.9311 36.5251 18.2436 38.8557 20.3942H53.6907V45.9749H53.6945L53.6926 45.9767Z" fill="#201C26"/>
</svg>
