<svg width="62" height="66" viewBox="0 0 62 66" fill="none" xmlns="http://www.w3.org/2000/svg">
<g filter="url(#filter0_d_1152_15796)">
<path d="M30.6048 19.9654C27.6093 20.0196 24.7547 21.2477 22.6555 23.3853C20.5562 25.523 19.38 28.3993 19.38 31.3954C19.38 34.3914 20.5562 37.2677 22.6555 39.4054C24.7547 41.543 27.6093 42.7711 30.6048 42.8254C33.6004 42.7711 36.455 41.543 38.5542 39.4054C40.6535 37.2677 41.8297 34.3914 41.8297 31.3954C41.8297 28.3993 40.6535 25.523 38.5542 23.3853C36.455 21.2477 33.6004 20.0196 30.6048 19.9654ZM30.6048 39.7954C28.377 39.7954 26.2404 38.9104 24.6651 37.3351C23.0898 35.7598 22.2048 33.6232 22.2048 31.3954C22.2048 29.1675 23.0898 27.031 24.6651 25.4557C26.2404 23.8804 28.377 22.9954 30.6048 22.9954C32.8327 22.9954 34.9692 23.8804 36.5445 25.4557C38.1198 27.031 39.0048 29.1675 39.0048 31.3954C39.0048 33.6232 38.1198 35.7598 36.5445 37.3351C34.9692 38.9104 32.8327 39.7954 30.6048 39.7954ZM46.6848 5.74536H14.523C13.2532 5.74561 11.9958 5.99596 10.8228 6.48212C9.64975 6.96828 8.58395 7.68072 7.68624 8.57878C6.78853 9.47684 6.07649 10.5429 5.59079 11.7162C5.10508 12.8894 4.85522 14.1468 4.85547 15.4166V47.3704C4.85547 52.7141 9.18672 57.0379 14.523 57.0379H46.6848C52.0286 57.0379 56.3523 52.7066 56.3523 47.3722V15.4204C56.3523 10.0766 52.0267 5.74536 46.6848 5.74536ZM42.2973 11.5091C42.2973 10.3747 43.2161 9.45224 44.3542 9.45224H50.3917C51.5242 9.45224 52.4467 10.371 52.4467 11.5091V17.5466C52.4467 18.6791 51.528 19.6016 50.388 19.6016H44.3505C43.2198 19.6016 42.2955 18.6829 42.2955 17.5447L42.2973 11.5091ZM54.2973 47.3722C54.2973 51.5685 50.8848 54.9847 46.6848 54.9847H14.523C12.5046 54.9827 10.5695 54.1801 9.14231 52.7529C7.71512 51.3257 6.91245 49.3906 6.91047 47.3722V21.7954H8.46109C8.65234 20.8579 9.48109 20.1491 10.4767 20.1491H16.923C17.9167 20.1491 18.7492 20.856 18.9367 21.7935H21.7455C24.0742 19.6429 27.183 18.3266 30.6048 18.3266C34.0267 18.3266 37.1298 19.6391 39.4605 21.7897H54.2955V47.3704H54.2992L54.2973 47.3722Z" fill="#D769ED"/>
<path d="M32.0001 18.5699C29.0045 18.6241 26.15 19.8522 24.0507 21.9898C21.9515 24.1275 20.7753 27.0038 20.7753 29.9999C20.7753 32.9959 21.9515 35.8722 24.0507 38.0099C26.15 40.1475 29.0045 41.3756 32.0001 41.4299C34.9957 41.3756 37.8502 40.1475 39.9495 38.0099C42.0488 35.8722 43.2249 32.9959 43.2249 29.9999C43.2249 27.0038 42.0488 24.1275 39.9495 21.9898C37.8502 19.8522 34.9957 18.6241 32.0001 18.5699ZM32.0001 38.3998C29.7723 38.3998 27.6357 37.5149 26.0604 35.9395C24.4851 34.3642 23.6001 32.2277 23.6001 29.9999C23.6001 27.772 24.4851 25.6355 26.0604 24.0602C27.6357 22.4849 29.7723 21.5999 32.0001 21.5999C34.2279 21.5999 36.3645 22.4849 37.9398 24.0602C39.5151 25.6355 40.4001 27.772 40.4001 29.9999C40.4001 32.2277 39.5151 34.3642 37.9398 35.9395C36.3645 37.5149 34.2279 38.3998 32.0001 38.3998ZM48.0801 4.34985H15.9182C14.6484 4.3501 13.3911 4.60045 12.2181 5.08661C11.045 5.57277 9.97921 6.28521 9.0815 7.18327C8.18379 8.08133 7.47176 9.14741 6.98605 10.3207C6.50035 11.4939 6.25049 12.7513 6.25073 14.0211V45.9749C6.25073 51.3186 10.582 55.6424 15.9182 55.6424H48.0801C53.4239 55.6424 57.7476 51.3111 57.7476 45.9767V14.0249C57.7476 8.6811 53.422 4.34985 48.0801 4.34985ZM43.6926 10.1136C43.6926 8.97923 44.6114 8.05673 45.7495 8.05673H51.787C52.9195 8.05673 53.842 8.97548 53.842 10.1136V16.1511C53.842 17.2836 52.9232 18.2061 51.7832 18.2061H45.7457C44.6151 18.2061 43.6907 17.2874 43.6907 16.1492L43.6926 10.1136ZM55.6926 45.9767C55.6926 50.173 52.2801 53.5892 48.0801 53.5892H15.9182C13.8999 53.5872 11.9648 52.7846 10.5376 51.3574C9.11038 49.9302 8.30772 47.9951 8.30573 45.9767V20.3999H9.85636C10.0476 19.4624 10.8764 18.7536 11.872 18.7536H18.3182C19.312 18.7536 20.1445 19.4605 20.332 20.398H23.1407C25.4695 18.2474 28.5782 16.9311 32.0001 16.9311C35.422 16.9311 38.5251 18.2436 40.8557 20.3942H55.6907V45.9749H55.6945L55.6926 45.9767Z" fill="#201C26"/>
<path d="M43.6926 10.1136C43.6926 8.97923 44.6114 8.05673 45.7495 8.05673H51.787C52.9195 8.05673 53.842 8.97548 53.842 10.1136V16.1511C53.842 17.2836 52.9232 18.2061 51.7832 18.2061H45.7457C44.6151 18.2061 43.6907 17.2874 43.6907 16.1492L43.6926 10.1136Z" fill="#AC18CA"/>
<path fill-rule="evenodd" clip-rule="evenodd" d="M55.6926 45.9767C55.6926 50.173 52.2801 53.5892 48.0801 53.5892H15.9182C13.8999 53.5872 11.9648 52.7846 10.5376 51.3574C9.11038 49.9302 8.30772 47.9951 8.30573 45.9767V20.3999H9.85636C10.0476 19.4624 10.8764 18.7536 11.872 18.7536H18.3182C19.312 18.7536 20.1445 19.4605 20.332 20.398H23.1407C25.4695 18.2474 28.5782 16.9311 32.0001 16.9311C35.422 16.9311 38.5251 18.2436 40.8557 20.3942H55.6907V45.9749H55.6945L55.6926 45.9767ZM24.0507 21.9898C26.15 19.8522 29.0045 18.6241 32.0001 18.5699C34.9957 18.6241 37.8502 19.8522 39.9495 21.9898C42.0488 24.1275 43.2249 27.0038 43.2249 29.9999C43.2249 32.9959 42.0488 35.8722 39.9495 38.0099C37.8502 40.1475 34.9957 41.3756 32.0001 41.4299C29.0045 41.3756 26.15 40.1475 24.0507 38.0099C21.9515 35.8722 20.7753 32.9959 20.7753 29.9999C20.7753 27.0038 21.9515 24.1275 24.0507 21.9898Z" fill="#AC18CA"/>
</g>
<defs>
<filter id="filter0_d_1152_15796" x="-2" y="-0.000244141" width="68" height="68" filterUnits="userSpaceOnUse" color-interpolation-filters="sRGB">
<feFlood flood-opacity="0" result="BackgroundImageFix"/>
<feColorMatrix in="SourceAlpha" type="matrix" values="0 0 0 0 0 0 0 0 0 0 0 0 0 0 0 0 0 0 127 0" result="hardAlpha"/>
<feOffset dy="4"/>
<feGaussianBlur stdDeviation="2"/>
<feComposite in2="hardAlpha" operator="out"/>
<feColorMatrix type="matrix" values="0 0 0 0 0 0 0 0 0 0 0 0 0 0 0 0 0 0 0.25 0"/>
<feBlend mode="normal" in2="BackgroundImageFix" result="effect1_dropShadow_1152_15796"/>
<feBlend mode="normal" in="SourceGraphic" in2="effect1_dropShadow_1152_15796" result="shape"/>
</filter>
</defs>
</svg>
