<svg width="60" height="60" viewBox="0 0 60 60" fill="none" xmlns="http://www.w3.org/2000/svg">
<path fill-rule="evenodd" clip-rule="evenodd" d="M29.1367 9.99733C29.1367 22.2357 29.1367 41.3357 29.1367 41.3357C29.1366 42.7013 28.746 44.0386 28.011 45.1896C27.276 46.3405 26.2273 47.2574 24.9884 47.832C23.7495 48.4066 22.3722 48.615 21.0188 48.4326C19.6654 48.2503 18.3923 47.6847 17.3497 46.8027C16.3071 45.9207 15.5384 44.759 15.1343 43.4545C14.7301 42.1501 14.7074 40.7572 15.0687 39.4403C15.43 38.1233 16.1604 36.9371 17.1736 36.0215C18.1868 35.1059 19.4407 34.4991 20.7875 34.2727L20.7908 34.2721C20.7984 34.2708 20.8062 34.2686 20.8135 34.2657V27.5453C18.2083 27.7647 15.7168 28.7179 13.6288 30.2967C11.477 31.9238 9.84775 34.1442 8.94132 36.685C8.03489 39.2258 7.89084 41.9761 8.5269 44.5977C9.16296 47.2193 10.5514 49.5978 12.5214 51.4407C14.4914 53.2836 16.9571 54.5105 19.6153 54.9705C22.2734 55.4305 25.008 55.1036 27.4828 54.03C29.9575 52.9563 32.0645 51.1827 33.5446 48.9274C35.0247 46.6721 35.8133 44.0333 35.8135 41.3357V27.3957C35.8135 25.6364 37.7169 24.7135 39.1171 25.4609L38.5703 26.4853L39.1164 25.4606L39.1171 25.4609C41.4979 26.7296 43.1557 27.1867 45.8466 27.3531V20.8357C45.8466 20.8357 41.536 19.2651 39.5676 17.2369C37.373 14.9757 36.0047 9.99733 36.0047 9.99733M27.4466 8.3072C27.852 7.90181 28.4018 7.67407 28.9751 7.67407H35.9751C35.985 7.67407 35.9949 7.6742 36.0047 7.67445C36.561 7.68864 37.092 7.90968 37.4941 8.29441C37.8925 8.67566 38.1359 9.19054 38.1778 9.74003C38.3889 12.0276 39.3381 14.2172 40.9629 15.8415C42.59 17.4682 44.7916 18.4253 47.0829 18.6339C48.162 18.732 49.1392 19.6154 49.1392 20.8357L49.1367 27.8357C49.1365 29.011 48.1686 30.0335 46.9171 29.9709C43.8504 29.8171 40.8543 28.9979 38.1367 27.5706V41.3357C38.1366 44.4862 37.2155 47.5681 35.487 50.2021C33.7584 52.836 31.2977 54.9074 28.4074 56.1613C25.5172 57.4152 22.3234 57.797 19.2191 57.2597C16.1147 56.7225 13.235 55.2896 10.9343 53.1373C8.63351 50.985 7.01199 48.2072 6.26915 45.1455C5.5263 42.0838 5.69453 38.8717 6.75314 35.9044C7.81174 32.937 9.71456 30.3438 12.2276 28.4436C14.7406 26.5434 17.7541 25.4192 20.8977 25.2092L20.9137 25.2082C21.2036 25.1929 21.4934 25.2374 21.7652 25.3391C22.0371 25.4408 22.285 25.5975 22.4936 25.7993C22.7022 26.0011 22.8669 26.2437 22.9775 26.512C23.0864 26.7761 23.1405 27.0595 23.1367 27.345V34.3357C23.1367 35.5612 22.1632 36.3992 21.1715 36.5639L21.1694 36.5643L20.9801 35.4184L21.1727 36.5637L21.1715 36.5639C20.2621 36.7171 19.4155 37.127 18.7312 37.7453C18.0467 38.3638 17.5533 39.1652 17.3092 40.055C17.0651 40.9447 17.0804 41.8857 17.3535 42.767C17.6265 43.6483 18.1458 44.4331 18.8502 45.029C19.5546 45.6249 20.4147 46.007 21.329 46.1302C22.2434 46.2534 23.1739 46.1126 24.0109 45.7244C24.8479 45.3362 25.5564 44.7168 26.053 43.9392C26.5495 43.1616 26.8134 42.2583 26.8135 41.3357V9.8357C26.8135 9.2624 27.0412 8.71258 27.4466 8.3072ZM38.0231 27.5105L38.0238 27.5108Z" fill="#D769ED"/>
<path fill-rule="evenodd" clip-rule="evenodd" d="M30.532 8.60206C30.532 20.8405 30.532 39.9404 30.532 39.9404C30.5319 41.3061 30.1413 42.6433 29.4063 43.7943C28.6713 44.9453 27.6225 45.8621 26.3837 46.4367C25.1448 47.0113 23.7675 47.2197 22.4141 47.0373C21.0606 46.855 19.7876 46.2895 18.745 45.4075C17.7024 44.5255 16.9337 43.3637 16.5295 42.0593C16.1254 40.7548 16.1026 39.362 16.464 38.045C16.8253 36.728 17.5556 35.5418 18.5689 34.6262C19.5821 33.7107 20.836 33.1039 22.1827 32.8774L22.1861 32.8768C22.1937 32.8756 22.2014 32.8734 22.2087 32.8704V26.15C19.6036 26.3695 17.112 27.3227 15.024 28.9015C12.8723 30.5285 11.243 32.749 10.3366 35.2897C9.43015 37.8305 9.28611 40.5809 9.92217 43.2024C10.5582 45.824 11.9466 48.2025 13.9167 50.0454C15.8867 51.8883 18.3524 53.1152 21.0105 53.5752C23.6686 54.0353 26.4033 53.7083 28.878 52.6347C31.3528 51.561 33.4598 49.7875 34.9399 47.5321C36.42 45.2768 37.2086 42.638 37.2087 39.9404V26.0004C37.2087 24.2411 39.1121 23.3182 40.5124 24.0657L39.9656 25.09L40.5117 24.0653L40.5124 24.0657C42.8932 25.3344 44.551 25.7914 47.2419 25.9579V19.4404C47.2419 19.4404 42.9312 17.8698 40.9628 15.8416C38.7683 13.5804 37.4 8.60206 37.4 8.60206M28.8419 6.91193C29.2473 6.50655 29.7971 6.27881 30.3704 6.27881H37.3704C37.3802 6.27881 37.3901 6.27893 37.4 6.27919C37.9563 6.29337 38.4873 6.51441 38.8893 6.89914C39.2877 7.2804 39.5311 7.79527 39.5731 8.34477C39.7842 10.6323 40.7334 12.8219 42.3582 14.4462C43.9853 16.073 46.1868 17.0301 48.4782 17.2386C49.5572 17.3367 50.5345 18.2201 50.5345 19.4404L50.532 26.4404C50.5318 27.6157 49.5639 28.6382 48.3124 28.5756C45.2457 28.4219 42.2495 27.6026 39.532 26.1753V39.9404C39.5318 43.091 38.6108 46.1728 36.8822 48.8068C35.1537 51.4408 32.6929 53.5121 29.8027 54.766C26.9124 56.0199 23.7187 56.4017 20.6143 55.8645C17.51 55.3272 14.6303 53.8943 12.3295 51.742C10.0288 49.5897 8.40726 46.8119 7.66441 43.7502C6.92157 40.6885 7.08979 37.4765 8.1484 34.5091C9.20701 31.5418 11.1098 28.9485 13.6228 27.0483C16.1358 25.1482 19.1494 24.0239 22.2929 23.8139L22.309 23.8129C22.5988 23.7976 22.8887 23.8422 23.1605 23.9439C23.4323 24.0456 23.6803 24.2022 23.8888 24.404C24.0974 24.6058 24.2622 24.8484 24.3728 25.1167C24.4816 25.3808 24.5358 25.6642 24.532 25.9497V32.9404C24.532 34.1659 23.5584 35.004 22.5668 35.1687L22.5646 35.169L22.3754 34.0232L22.568 35.1685L22.5668 35.1687C21.6574 35.3219 20.8107 35.7317 20.1265 36.35C19.4419 36.9686 18.9485 37.77 18.7044 38.6597C18.4603 39.5494 18.4757 40.4904 18.7487 41.3717C19.0218 42.253 19.5411 43.0379 20.2455 43.6338C20.9499 44.2296 21.8099 44.6117 22.7243 44.7349C23.6386 44.8581 24.5692 44.7173 25.4061 44.3291C26.2431 43.9409 26.9517 43.3215 27.4482 42.5439C27.9448 41.7663 28.2086 40.863 28.2087 39.9404V8.44044C28.2087 7.86713 28.4365 7.31732 28.8419 6.91193ZM39.4183 26.1152L39.419 26.1156Z" fill="#201C26"/>
</svg>
