<svg width="60" height="60" viewBox="0 0 60 60" fill="none" xmlns="http://www.w3.org/2000/svg">
<g clip-path="url(#clip0_3099_15055)">
<path fill-rule="evenodd" clip-rule="evenodd" d="M35.3953 8.54604C37.7612 7.64304 40.3473 7.48842 42.8039 8.10309C45.0044 8.65369 47.0059 9.79775 48.5937 11.4036C49.8087 10.951 51.3391 10.2009 52.6891 9.48844C53.4824 9.06979 54.1903 8.67664 54.7 8.38812C54.9546 8.24398 55.1592 8.12624 55.2996 8.04486C55.3698 8.00417 55.4239 7.97259 55.4602 7.95136L55.5009 7.92744L55.5131 7.92026C55.5131 7.92025 55.5131 7.92027 55.5131 7.92026C55.9408 7.66764 56.4824 7.71466 56.8598 8.0377C57.2372 8.36075 57.3674 8.88804 57.1837 9.34963L56.1044 8.92017C57.1837 9.34963 57.1838 9.34947 57.1837 9.34963L57.1829 9.35169L57.1746 9.37228L57.1505 9.43214C57.1294 9.48402 57.0986 9.55941 57.0588 9.65566C56.9791 9.84813 56.863 10.1243 56.7159 10.4629C56.4221 11.1393 56.0028 12.0689 55.5014 13.0805C54.62 14.8584 53.4185 17.0286 52.1445 18.4721C52.2241 19.034 52.2646 19.5992 52.266 20.1674L52.266 20.1702C52.266 34.9517 45.1739 45.6708 35.0877 51.0393C25.0297 56.3928 12.1114 56.3641 0.540238 49.9356C0.0699984 49.6744 -0.15936 49.1244 -0.0141001 48.6065C0.13116 48.0885 0.613033 47.7381 1.15054 47.7595C6.43028 47.9695 11.6466 46.6777 16.2015 44.055C11.4681 41.605 8.26764 38.5447 6.1777 35.2448C3.81986 31.5219 2.91969 27.5643 2.75644 23.9729C2.59343 20.3866 3.16356 17.1415 3.76881 14.8012C4.07213 13.6283 4.38619 12.6754 4.62621 12.0115C4.74628 11.6794 4.84803 11.4191 4.92093 11.2391C4.95738 11.1492 4.98664 11.0792 5.00739 11.0304C5.01777 11.006 5.02603 10.9869 5.03199 10.9732L5.03921 10.9567L5.04149 10.9515L5.04229 10.9497C5.0426 10.949 5.04286 10.9484 6.10437 11.4202L5.04286 10.9484C5.21283 10.566 5.57534 10.3045 5.99186 10.264C6.40837 10.2235 6.81449 10.4101 7.055 10.7526C9.4707 14.1924 12.6996 16.9814 16.4542 18.8712C19.8713 20.5912 23.6274 21.5177 27.4427 21.5881V20.2528C27.4105 17.7235 28.1549 15.245 29.5757 13.152C30.998 11.0568 33.0295 9.44903 35.3953 8.54604ZM6.46879 13.8131C6.32441 14.2688 6.16997 14.7955 6.01806 15.3829C5.45144 17.5738 4.92782 20.5788 5.0773 23.8674C5.22656 27.151 6.04514 30.6934 8.14043 34.0018C10.231 37.3027 13.6369 40.4412 19.0762 42.8587C19.4616 43.03 19.7239 43.3967 19.7614 43.8168C19.7989 44.237 19.6058 44.6444 19.2568 44.8813C15.2221 47.62 10.6059 49.3298 5.80888 49.8961C15.5715 53.8922 25.8425 53.3283 33.9961 48.9885C43.2842 44.0448 49.9419 34.14 49.9427 20.1729C49.9413 19.549 49.8816 18.9297 49.7635 18.3139C49.6905 17.9329 49.8124 17.5405 50.0887 17.2681C51.2095 16.1626 52.4361 14.0331 53.4199 12.0486C53.4919 11.9033 53.5622 11.7597 53.6306 11.6183C52.0443 12.4509 50.0672 13.4122 48.5894 13.8574C48.1519 13.9892 47.6777 13.8523 47.3779 13.5075C46.0284 11.9558 44.2349 10.856 42.24 10.3569C40.2451 9.85772 38.145 9.98327 36.2238 10.7166C34.3026 11.4499 32.6529 12.7555 31.4979 14.4569C30.3429 16.1583 29.7383 18.1734 29.7659 20.2296L29.766 20.2452V22.7452C29.766 23.375 29.2641 23.8901 28.6345 23.9064C24.0496 24.0253 19.5064 23.0084 15.4096 20.9464C11.9603 19.2102 8.91763 16.7786 6.46879 13.8131Z" fill="#D769ED"/>
<path fill-rule="evenodd" clip-rule="evenodd" d="M36.7909 7.15053C39.1567 6.24753 41.7428 6.09291 44.1994 6.70759C46.3999 7.25818 48.4014 8.40224 49.9892 10.0081C51.2042 9.55553 52.7346 8.80538 54.0846 8.09293C54.8779 7.67428 55.5858 7.28114 56.0955 6.99261C56.3501 6.84847 56.5547 6.73073 56.6951 6.64935C56.7653 6.60866 56.8194 6.57708 56.8557 6.55585L56.8964 6.53193L56.9086 6.52475C56.9087 6.52474 56.9086 6.52476 56.9086 6.52475C57.3364 6.27213 57.8779 6.31915 58.2553 6.64219C58.6327 6.96525 58.7629 7.49253 58.5792 7.95412L57.4999 7.52466C58.5792 7.95412 58.5793 7.95396 58.5792 7.95412L58.5784 7.95619L58.5701 7.97677L58.546 8.03664C58.5249 8.08851 58.4941 8.1639 58.4543 8.26015C58.3746 8.45262 58.2585 8.72877 58.1114 9.06738C57.8176 9.74384 57.3984 10.6734 56.8969 11.685C56.0155 13.4629 54.814 15.6331 53.54 17.0766C53.6196 17.6384 53.6601 18.2037 53.6615 18.7719L53.6615 18.7747C53.6615 33.5562 46.5694 44.2753 36.4832 49.6438C26.4252 54.9973 13.507 54.9686 1.93575 48.5401C1.46551 48.2789 1.23615 47.7289 1.38141 47.211C1.52667 46.693 2.00854 46.3426 2.54605 46.3639C7.82578 46.574 13.0421 45.2822 17.597 42.6595C12.8637 40.2095 9.66315 37.1492 7.5732 33.8493C5.21537 30.1264 4.3152 26.1688 4.15195 22.5774C3.98894 18.9911 4.55907 15.746 5.16432 13.4057C5.46764 12.2328 5.7817 11.2799 6.02172 10.616C6.14179 10.2839 6.24354 10.0236 6.31643 9.84363C6.35289 9.75364 6.38215 9.68371 6.4029 9.63491C6.41328 9.6105 6.42153 9.59138 6.4275 9.57766L6.43471 9.56116L6.43699 9.55599L6.4378 9.55417C6.4381 9.55348 6.43837 9.55288 7.49988 10.0247L6.43837 9.55288C6.60833 9.17046 6.97085 8.90903 7.38737 8.86849C7.80388 8.82796 8.21 9.01459 8.45051 9.35706C10.8662 12.7969 14.0951 15.5859 17.8497 17.4757C21.2668 19.1956 25.0229 20.1222 28.8383 20.1926V18.8573C28.806 16.3279 29.5504 13.8495 30.9712 11.7565C32.3935 9.66134 34.425 8.05353 36.7909 7.15053ZM7.86429 12.4176C7.71992 12.8733 7.56548 13.4 7.41357 13.9874C6.84694 16.1783 6.32333 19.1832 6.47281 22.4719C6.62207 25.7555 7.44064 29.2979 9.53593 32.6063C11.6265 35.9072 15.0324 39.0457 20.4717 41.4631C20.8571 41.6345 21.1194 42.0012 21.1569 42.4213C21.1944 42.8414 21.0013 43.2489 20.6523 43.4858C16.6176 46.2245 12.0014 47.9343 7.20439 48.5006C16.967 52.4967 27.238 51.9328 35.3916 47.593C44.6797 42.6493 51.3374 32.7445 51.3382 18.7774C51.3368 18.1535 51.2771 17.5342 51.159 16.9184C51.086 16.5374 51.208 16.145 51.4842 15.8726C52.605 14.7671 53.8316 12.6376 54.8154 10.6531C54.8874 10.5078 54.9577 10.3641 55.0261 10.2228C53.4398 11.0554 51.4627 12.0167 49.9849 12.4619C49.5474 12.5937 49.0732 12.4568 48.7734 12.112C47.4239 10.5603 45.6304 9.46051 43.6355 8.96136C41.6406 8.46221 39.5405 8.58777 37.6193 9.32106C35.6981 10.0543 34.0484 11.36 32.8934 13.0614C31.7384 14.7628 31.1338 16.7779 31.1614 18.8341L31.1615 18.8497V21.3497C31.1615 21.9795 30.6596 22.4946 30.03 22.5109C25.4451 22.6298 20.9019 21.6129 16.8051 19.5509C13.3558 17.8147 10.3131 15.3831 7.86429 12.4176Z" fill="#201C26"/>
</g>
<defs>
<clipPath id="clip0_3099_15055">
<rect width="60" height="60" fill="white" transform="translate(0 -0.000244141)"/>
</clipPath>
</defs>
</svg>
