<svg width="172" height="61" viewBox="0 0 172 61" fill="none" xmlns="http://www.w3.org/2000/svg">
<g clip-path="url(#clip0_502_11080)">
<path d="M104.493 0.0295608C103.323 -0.0664046 102.215 0.0712848 101.172 0.442629C100.947 0.538594 100.718 0.622043 100.48 0.697146C99.3806 1.08935 98.3095 1.52746 97.2665 2.01145C93.0291 4.13521 88.9367 6.50514 84.9892 9.12958C82.0146 11.1073 79.1522 13.2477 76.3974 15.5509C76.3974 15.5593 76.4021 15.5676 76.4068 15.5801C76.477 15.9598 76.1262 16.327 75.7146 16.3729C75.6211 16.3812 75.5369 16.3729 75.4527 16.3604C74.8727 16.8569 74.2974 17.3576 73.7315 17.8666C71.8046 19.6607 69.1433 22.2601 65.7618 25.6565C62.3756 29.057 59.4477 32.0236 56.9736 34.5562C55.1495 36.413 54.186 37.381 54.0785 37.4561C54.1627 37.2641 54.2749 36.9929 54.4152 36.6341C54.5555 36.2753 54.7052 35.9123 54.8595 35.5409C55.0139 35.1195 55.1308 34.8274 55.215 34.6689C55.6032 33.5507 55.9961 32.445 56.3843 31.3602C57.1887 29.2489 57.9698 27.121 58.7275 24.9764C59.0128 24.1002 59.2607 23.1989 59.4711 22.2685C59.4945 22.1934 59.5179 22.1225 59.5413 22.0474C59.6722 21.3297 59.5273 20.7915 59.1157 20.4326C58.6994 20.0738 58.1943 19.9528 57.5909 20.0696C56.7865 20.2824 56.099 20.6997 55.533 21.3214C55.4021 21.459 55.2711 21.6009 55.1448 21.7469C54.1486 22.7942 53.1758 23.8582 52.217 24.9472C50.8092 26.5744 49.4014 28.2183 47.9936 29.8873C47.6054 30.3504 47.3107 30.5924 47.1143 30.6091C46.9179 30.6258 46.9927 30.3171 47.3341 29.6829C48.4473 27.6467 49.4949 25.5605 50.4865 23.4368C51.4733 21.3088 52.3479 19.1058 53.1056 16.8235C53.1524 16.69 53.2459 16.3395 53.288 16.206C53.26 16.2394 53.1524 16.436 53.1056 16.4611C52.68 16.7156 52.2544 16.1726 52.68 15.9181C52.9747 15.7428 53.2693 15.9682 53.288 16.206C53.6903 14.8374 53.9382 13.4063 54.013 11.9084C54.0177 11.6289 54.013 11.3618 53.9943 11.0948C53.6108 11.3785 53.0963 10.8611 53.4751 10.5565C53.6341 10.4314 53.8119 10.4522 53.9475 10.5357C53.7464 8.55796 53.0168 7.05589 51.7399 6.03783C50.1778 4.79862 48.045 4.13521 45.3417 4.05176C42.6384 3.96831 39.5983 4.33966 36.2261 5.16997C32.8539 6.00028 29.4022 7.1602 25.8757 8.65393C22.3492 10.1476 18.963 11.8458 15.7218 13.7526C12.4806 15.6594 9.63695 17.6496 7.20019 19.7317C4.85698 21.7344 3.08905 23.6955 1.8964 25.6148C2.03203 25.694 2.14896 25.8067 2.21911 25.9486C2.39684 26.299 2.16299 26.733 1.77479 26.8707C1.58303 26.9374 1.3866 26.9332 1.21354 26.8707C0.806638 27.701 0.465212 28.5688 0.189265 29.4659C0.0115364 29.9708 -0.0399114 30.534 0.0302446 31.1432C0.137817 31.6063 0.395056 31.8984 0.811315 32.0152C1.07323 32.057 1.30708 32.0278 1.52223 31.9193C1.73738 31.815 1.8543 31.6564 1.87769 31.4436C1.94784 30.3755 2.20976 29.3908 2.65876 28.4812C3.5474 26.5828 4.62313 24.8387 5.89061 23.2532C7.0973 21.8179 8.78104 20.2824 10.9418 18.6427C12.6583 17.3409 14.5759 16.0516 16.6806 14.7748C16.545 14.6288 16.5169 14.3952 16.7461 14.2575C16.9753 14.1198 17.2044 14.2283 17.3073 14.3993C17.6441 14.1991 17.9902 13.9988 18.3363 13.7985C20.2539 12.6928 22.2276 11.6622 24.2481 10.6901C24.1967 10.3771 24.4165 10.0475 24.7439 9.93068C25.0385 9.82637 25.3472 9.8973 25.567 10.0725C26.0348 9.85558 26.4978 9.63862 26.9655 9.42999C29.9495 8.11151 32.8586 7.04755 35.6976 6.24645C38.5366 5.44535 41.123 5.01976 43.4568 4.96969C45.786 4.92379 47.6709 5.35772 49.1021 6.27565C50.5332 7.19358 51.3284 8.72069 51.4827 10.8528C51.5295 12.1838 51.3892 13.4605 51.0571 14.6872C50.4537 16.9904 49.6727 19.1851 48.7139 21.2755C48.2462 22.3186 47.7597 23.345 47.264 24.3672C47.3014 24.4799 47.2827 24.6092 47.1564 24.7135C47.133 24.7344 47.105 24.7386 47.0816 24.7552C45.2435 28.5229 43.237 32.1613 41.0622 35.6744C41.123 35.7954 41.109 35.9456 40.964 36.0625C40.9032 36.1125 40.8377 36.1334 40.7722 36.1417C40.6319 36.3671 40.4963 36.5924 40.3559 36.8135C39.7853 37.7231 39.2101 38.6327 38.6348 39.5381C38.8125 39.584 38.9809 39.6799 39.0978 39.8218C39.3551 40.1306 39.2241 40.6021 38.878 40.8065C38.5553 40.9984 38.153 40.9442 37.8864 40.723C36.6844 42.6173 35.4778 44.5074 34.2664 46.3934C33.2468 47.9997 32.2178 49.6019 31.1795 51.2083C30.81 51.7674 30.4733 52.3599 30.1693 52.9816C30.0851 53.1944 30.1178 53.4072 30.2581 53.6325C30.3985 53.8536 30.5996 53.9955 30.8615 54.0581C31.4414 54.154 31.9045 54.0581 32.2553 53.7827C32.606 53.5031 33.1392 53.3195 33.4198 52.8731C34.3974 51.8467 36.0437 50.0317 37.8631 47.9371C37.6526 47.8287 37.5403 47.5533 37.7742 47.3655C37.966 47.2111 38.1951 47.2696 38.3261 47.4031C40.6412 44.716 43.1669 41.6451 44.9114 39.1834C47.5119 35.5159 48.3631 34.3768 50.5426 31.2517C50.9822 30.7468 52.4134 28.9235 52.5444 28.9861C52.5678 28.9861 53.0822 28.1266 54.0083 28.5062C54.3638 28.7941 53.9709 29.8372 53.8165 30.2586C53.2927 32.299 52.6753 34.2057 51.7165 37.0138C51.4079 37.9025 51.174 38.8204 51.0056 39.7676C50.9589 40.1139 51.043 40.4185 51.2629 40.6772C51.4593 40.9066 51.7025 41.0485 51.9972 41.1069C52.0299 40.9525 52.1094 40.8023 52.2451 40.698C52.5771 40.431 53.0682 40.4769 53.3722 40.7564C53.419 40.7981 53.4564 40.8482 53.4845 40.8983C54.0551 40.698 54.621 40.4143 54.9905 40.1848C55.5892 39.8135 55.7014 39.7884 56.286 39.2752C56.9689 38.7537 60.9771 35.1696 63.5168 32.6244C65.6215 30.5173 68.1237 28.3477 70.3921 26.2406C70.3874 26.1488 70.4202 26.0529 70.523 25.9736C70.6026 25.911 70.6867 25.8901 70.7709 25.8901C71.1077 25.573 71.4398 25.2559 71.7625 24.943C71.8934 24.8262 78.1046 19.6315 78.2122 19.5147C83.8433 15.5926 84.0585 15.4466 85.5037 14.5871C89.4839 12.3549 93.1694 13.2018 94.1376 14.8249C95.2086 18.4132 93.3331 20.5161 90.6532 26.6871C88.1182 32.5201 85.3961 36.6383 82.2344 42.6632C80.6957 45.4379 78.1186 49.8022 76.7108 52.6144C75.8222 53.8912 74.985 55.6394 74.1057 56.9162C73.7175 57.4669 73.362 58.0469 73.0393 58.6561C72.9925 58.7395 72.9785 58.8522 73.0019 58.9982C73.0253 59.1401 73.0674 59.2444 73.1282 59.307C73.1983 59.3821 73.2919 59.4405 73.4135 59.4905C73.5304 59.5364 73.6427 59.5615 73.7502 59.5615C73.9888 59.5615 74.1758 59.4989 74.3161 59.3695C74.4565 59.2444 74.5827 59.0858 74.6903 58.8939C74.7137 58.873 74.7371 58.8355 74.7605 58.7812C75.2329 58.1595 75.7006 57.5337 76.1636 56.912C78.1139 54.2625 80.0596 51.6005 81.9865 48.9302C83.9135 46.2598 85.803 43.5394 87.6505 40.7731C91.205 35.4074 94.6146 29.9249 97.8839 24.3255L97.9801 24.1511C97.9801 24.1511 97.644 24.7304 97.8839 24.3255C98.0052 24.1177 97.959 24.1684 98.1412 23.879C100.003 20.6746 101.822 17.4368 103.59 14.1532C104.549 12.2964 105.442 10.4063 106.27 8.48286C106.354 8.29093 106.434 8.10317 106.518 7.91124C107.112 6.63448 107.472 5.26593 107.603 3.80976C107.795 1.46487 106.761 0.200629 104.516 0.00869873L104.493 0.0295608ZM38.0922 44.8871C37.6666 45.1416 37.2223 44.5491 37.6479 44.2946C38.0735 44.0401 38.5179 44.6326 38.0922 44.8871ZM48.2415 33.2628C47.9094 33.5298 47.4183 33.4839 47.1143 33.2044C46.815 32.929 46.8664 32.4492 47.1798 32.1988C47.5119 31.9318 48.003 31.9777 48.307 32.2572C48.6063 32.5326 48.5548 33.0124 48.2415 33.2628ZM55.4114 32.7037C55.0279 33.0083 54.4994 32.4784 54.8782 32.1738C55.2618 31.8692 55.7903 32.3991 55.4114 32.7037ZM56.0943 22.3478C56.0943 22.3686 56.0802 22.3811 56.0569 22.3811V22.3478C56.0335 22.3269 55.9914 22.2935 55.9306 22.2518C55.9914 22.2935 56.0428 22.3269 56.0896 22.3478H56.0943ZM54.3451 27.822C54.6771 27.5549 55.1682 27.6008 55.4722 27.8804C55.7716 28.1558 55.7201 28.6356 55.4067 28.8859C55.0747 29.153 54.5836 29.1071 54.2796 28.8275C53.9802 28.5521 54.0317 28.0723 54.3451 27.822ZM57.156 38.0694C56.7725 38.374 56.2439 37.8441 56.6228 37.5395C57.0063 37.2349 57.5348 37.7648 57.156 38.0694ZM70.4155 25.2059C69.9712 25.2559 69.597 24.968 69.5268 24.5884C69.4567 24.2087 69.8075 23.8415 70.219 23.7956C70.6634 23.7455 71.0375 24.0334 71.1077 24.4131C71.1778 24.7928 70.8271 25.16 70.4155 25.2059ZM88.8993 13.1142C88.4549 13.1643 88.0808 12.8764 88.0106 12.4967C87.9405 12.117 88.2912 11.7499 88.7028 11.704C89.1471 11.6539 89.5213 11.9418 89.5915 12.3215C89.6616 12.7012 89.3108 13.0683 88.8993 13.1142ZM91.1255 11.3284C90.8169 11.6163 90.3258 11.608 89.9984 11.3535C89.6757 11.1031 89.685 10.6191 89.9703 10.3479C90.279 10.06 90.7701 10.0684 91.0975 10.3229C91.4202 10.5732 91.4108 11.0572 91.1255 11.3284ZM80.3636 50.8161C80.0081 51.1499 79.4329 50.6576 79.7883 50.3279C80.1438 49.9941 80.7191 50.4865 80.3636 50.8161ZM84.8489 44.2529C84.3391 44.3071 84.2409 43.602 84.7507 43.5478C85.2605 43.4935 85.3587 44.1987 84.8489 44.2529ZM86.8413 38.9581C86.3316 39.0124 86.2333 38.3072 86.7431 38.253C87.2529 38.1987 87.3512 38.9039 86.8413 38.9581ZM88.1416 36.9846C87.7861 37.3184 87.2108 36.826 87.5663 36.4964C87.9217 36.1626 88.497 36.655 88.1416 36.9846ZM97.159 4.27707C97.5144 3.94328 98.0897 4.43562 97.7342 4.76524C97.3788 5.09904 96.8035 4.60669 97.159 4.27707ZM94.3434 11.3326C94.8532 11.2784 94.9514 11.9835 94.4416 12.0377C93.9318 12.092 93.8336 11.3869 94.3434 11.3326ZM94.8999 18.7595C94.3901 18.8137 94.2919 18.1086 94.8017 18.0544C95.3115 18.0001 95.4097 18.7053 94.8999 18.7595ZM95.5734 16.2686C95.9289 15.9348 96.5042 16.4271 96.1487 16.7567C95.7933 17.0905 95.218 16.5982 95.5734 16.2686ZM96.2329 25.815C95.8774 26.1488 95.3022 25.6565 95.6576 25.3269C96.0131 24.9931 96.5884 25.4854 96.2329 25.815ZM96.434 6.74296C95.9242 6.79721 95.826 6.09207 96.3358 6.03783C96.8456 5.98359 96.9438 6.68872 96.434 6.74296ZM97.636 15.4299C97.1917 15.48 96.8175 15.1921 96.7474 14.8124C96.6772 14.4327 97.028 14.0655 97.4396 14.0196C97.8839 13.9696 98.2581 14.2575 98.3282 14.6372C98.3984 15.0168 98.0476 15.384 97.636 15.4299ZM101.841 11.7332C101.485 12.067 100.91 11.5746 101.265 11.245C101.621 10.9112 102.196 11.4035 101.841 11.7332ZM104.755 3.95162C104.446 4.23952 103.955 4.23117 103.627 3.97666C103.305 3.72631 103.314 3.24231 103.599 2.97111C103.908 2.68321 104.399 2.69156 104.726 2.94607C105.049 3.19642 105.04 3.68042 104.755 3.95162Z" fill="url(#paint0_linear_502_11080)"/>
<path d="M104.755 3.95162C104.446 4.23952 103.955 4.23117 103.627 3.97666C103.305 3.72631 103.314 3.24231 103.599 2.97111C103.908 2.68321 104.399 2.69156 104.726 2.94607C105.049 3.19642 105.04 3.68042 104.755 3.95162Z" fill="white"/>
<path d="M101.841 11.7332C101.485 12.067 100.91 11.5746 101.265 11.245C101.621 10.9112 102.196 11.4035 101.841 11.7332Z" fill="white"/>
<path d="M97.636 15.4299C97.1917 15.48 96.8175 15.1921 96.7474 14.8124C96.6772 14.4327 97.028 14.0655 97.4396 14.0196C97.8839 13.9696 98.2581 14.2575 98.3282 14.6372C98.3984 15.0168 98.0476 15.384 97.636 15.4299Z" fill="white"/>
<path d="M91.1255 11.3284C90.8169 11.6163 90.3258 11.608 89.9984 11.3535C89.6757 11.1031 89.685 10.6191 89.9703 10.3479C90.279 10.06 90.7701 10.0684 91.0975 10.3229C91.4202 10.5732 91.4108 11.0572 91.1255 11.3284Z" fill="white"/>
<path d="M95.5734 16.2686C95.9289 15.9348 96.5042 16.4271 96.1487 16.7567C95.7933 17.0905 95.218 16.5982 95.5734 16.2686Z" fill="white"/>
<path d="M94.3434 11.3326C94.8532 11.2784 94.9514 11.9835 94.4416 12.0377C93.9318 12.092 93.8336 11.3869 94.3434 11.3326Z" fill="white"/>
<path d="M96.434 6.74296C95.9242 6.79721 95.826 6.09207 96.3358 6.03783C96.8456 5.98359 96.9438 6.68872 96.434 6.74296Z" fill="white"/>
<path d="M97.159 4.27707C97.5144 3.94328 98.0897 4.43562 97.7342 4.76524C97.3788 5.09904 96.8035 4.60669 97.159 4.27707Z" fill="white"/>
<path d="M94.8999 18.7595C94.3901 18.8137 94.2919 18.1086 94.8017 18.0544C95.3115 18.0001 95.4097 18.7053 94.8999 18.7595Z" fill="white"/>
<path d="M88.8993 13.1142C88.4549 13.1643 88.0808 12.8764 88.0106 12.4967C87.9405 12.117 88.2912 11.7499 88.7028 11.704C89.1471 11.6539 89.5213 11.9418 89.5915 12.3215C89.6616 12.7012 89.3108 13.0683 88.8993 13.1142Z" fill="white"/>
<path d="M96.2329 25.815C95.8774 26.1488 95.3022 25.6565 95.6576 25.3269C96.0131 24.9931 96.5884 25.4854 96.2329 25.815Z" fill="white"/>
<path d="M70.4155 25.2059C69.9712 25.2559 69.597 24.968 69.5268 24.5884C69.4567 24.2087 69.8075 23.8415 70.219 23.7956C70.6634 23.7455 71.0375 24.0334 71.1077 24.4131C71.1778 24.7928 70.8271 25.16 70.4155 25.2059Z" fill="white"/>
<path d="M88.1416 36.9846C87.7861 37.3184 87.2108 36.826 87.5663 36.4964C87.9217 36.1626 88.497 36.655 88.1416 36.9846Z" fill="white"/>
<path d="M86.8413 38.9581C86.3316 39.0124 86.2333 38.3072 86.7431 38.253C87.2529 38.1987 87.3512 38.9039 86.8413 38.9581Z" fill="white"/>
<path d="M84.8489 44.2529C84.3391 44.3071 84.2409 43.602 84.7507 43.5478C85.2605 43.4935 85.3587 44.1987 84.8489 44.2529Z" fill="white"/>
<path d="M80.3636 50.8161C80.0081 51.1499 79.4329 50.6576 79.7883 50.3279C80.1438 49.9941 80.7191 50.4865 80.3636 50.8161Z" fill="white"/>
<path d="M57.156 38.0694C56.7725 38.374 56.2439 37.8441 56.6228 37.5395C57.0063 37.2349 57.5348 37.7648 57.156 38.0694Z" fill="white"/>
<path d="M55.4114 32.7037C55.0279 33.0083 54.4994 32.4784 54.8782 32.1738C55.2618 31.8692 55.7903 32.3991 55.4114 32.7037Z" fill="white"/>
<path d="M54.3451 27.822C54.6771 27.5549 55.1682 27.6008 55.4722 27.8804C55.7716 28.1558 55.7201 28.6356 55.4067 28.8859C55.0747 29.153 54.5836 29.1071 54.2796 28.8275C53.9802 28.5521 54.0317 28.0723 54.3451 27.822Z" fill="white"/>
<path d="M48.2415 33.2628C47.9094 33.5298 47.4183 33.4839 47.1143 33.2044C46.815 32.929 46.8664 32.4492 47.1798 32.1988C47.5119 31.9318 48.003 31.9777 48.307 32.2572C48.6063 32.5326 48.5548 33.0124 48.2415 33.2628Z" fill="white"/>
<path d="M38.0922 44.8871C37.6666 45.1416 37.2223 44.5491 37.6479 44.2946C38.0735 44.0401 38.5179 44.6326 38.0922 44.8871Z" fill="white"/>
<path d="M76.4068 15.5801C76.4021 15.5676 76.3974 15.5593 76.3974 15.5509L75.4527 16.3604C75.5369 16.3729 75.6211 16.3812 75.7146 16.3729C76.1262 16.327 76.477 15.9598 76.4068 15.5801Z" fill="white"/>
<path d="M52.2451 40.698C52.1094 40.8023 52.0299 40.9525 51.9972 41.1069C51.9972 41.1069 52.2602 41.1838 52.7491 41.1069C53.2381 41.03 53.4845 40.8983 53.4845 40.8983C53.4564 40.8482 53.419 40.7981 53.3722 40.7564C53.0682 40.4769 52.5771 40.431 52.2451 40.698Z" fill="white"/>
<path d="M37.7742 47.3655C37.5403 47.5533 37.6526 47.8287 37.8631 47.9371L38.3261 47.4031C38.1951 47.2696 37.966 47.2111 37.7742 47.3655Z" fill="white"/>
<path d="M39.0978 39.8218C38.9809 39.6799 38.8125 39.584 38.6348 39.5381L37.8864 40.723C38.153 40.9442 38.5553 40.9984 38.878 40.8065C39.2241 40.6021 39.3551 40.1306 39.0978 39.8218Z" fill="white"/>
<path d="M40.964 36.0625C41.109 35.9456 41.123 35.7954 41.0622 35.6744L40.7722 36.1417C40.8377 36.1334 40.9032 36.1125 40.964 36.0625Z" fill="white"/>
<path d="M53.1056 16.4611C53.1524 16.436 53.26 16.2394 53.288 16.206C53.2693 15.9682 52.9747 15.7428 52.68 15.9181C52.2544 16.1726 52.68 16.7156 53.1056 16.4611Z" fill="white"/>
<path d="M53.4751 10.5565C53.0963 10.8611 53.6108 11.3785 53.9943 11.0948L53.9475 10.5357C53.8119 10.4522 53.6341 10.4314 53.4751 10.5565Z" fill="white"/>
<path d="M16.7461 14.2575C16.5169 14.3952 16.545 14.6288 16.6806 14.7748L17.3073 14.3993C17.2044 14.2283 16.9753 14.1198 16.7461 14.2575Z" fill="white"/>
<path d="M24.7439 9.93068C24.4165 10.0475 24.1967 10.3771 24.2481 10.6901L25.567 10.0725C25.3472 9.8973 25.0385 9.82637 24.7439 9.93068Z" fill="white"/>
<path d="M2.21911 25.9486C2.14896 25.8067 2.03203 25.694 1.8964 25.6148L1.21354 26.8707C1.3866 26.9332 1.58303 26.9374 1.77479 26.8707C2.16299 26.733 2.39684 26.299 2.21911 25.9486Z" fill="white"/>
<path d="M171.03 33.2706C171.11 33.2706 171.199 33.2923 171.297 33.3356C171.41 33.3645 171.499 33.4078 171.564 33.4655C171.79 33.6532 171.814 33.877 171.636 34.1369C171.41 34.3534 171.191 34.5411 170.981 34.6999C169.735 35.725 168.351 36.584 166.83 37.277C164.435 38.3599 161.797 38.9157 158.916 38.9446C157.848 38.9734 156.748 38.8146 155.615 38.4681C153.544 37.7463 152.702 36.4108 153.091 34.4617C153.56 32.657 154.701 31.1627 156.513 29.9789C158.326 28.7805 160.268 28.2608 162.339 28.4196C162.728 28.4774 163.116 28.5568 163.504 28.6578C163.86 28.7878 164.127 28.9827 164.305 29.2425C164.483 29.488 164.5 29.6901 164.354 29.8489C163.966 30.2243 163.521 30.3181 163.019 30.1304C162.274 29.8417 161.587 29.7623 160.956 29.8922C160.341 30.0222 159.718 30.3254 159.086 30.8018C158.471 31.2205 157.808 31.8269 157.096 32.6209C156.384 33.415 155.931 34.2163 155.736 35.0248C155.542 35.8333 155.947 36.4902 156.95 36.9955C158.083 37.4431 159.24 37.5513 160.421 37.3203C163.367 36.7862 166.102 35.79 168.626 34.3318C168.853 34.2307 169.055 34.1152 169.233 33.9853C169.508 33.7976 169.783 33.646 170.059 33.5305C170.35 33.4006 170.674 33.3139 171.03 33.2706Z" fill="#34DAD2"/>
<path d="M153.698 35.4361C152.84 36.3456 151.82 37.183 150.639 37.9482C149.458 38.7134 148.123 39.2331 146.634 39.5074C145.145 39.7673 143.988 39.6663 143.162 39.2043C142.337 38.7423 142.175 37.7172 142.677 36.1291C143.324 34.4832 144.214 32.9167 145.347 31.4296C145.606 31.112 145.978 30.8882 146.464 30.7583C146.82 30.6861 147.127 30.7438 147.386 30.9315C147.661 31.1048 147.767 31.3286 147.702 31.6029C147.459 32.1226 147.192 32.6424 146.901 33.1621C146.609 33.6819 146.415 34.0212 146.318 34.18C145.752 35.104 145.355 36.0713 145.129 37.0819C145.129 37.6594 145.994 37.6955 147.726 37.1902C149.458 36.6849 151.141 35.7609 152.775 34.4182C154.41 33.0611 155.187 32.664 155.106 33.2271C155.041 33.7757 154.572 34.512 153.698 35.4361ZM149.474 28.1812C149.393 28.2389 149.223 28.3111 148.964 28.3977C148.721 28.4699 148.454 28.5277 148.163 28.571C147.888 28.5999 147.669 28.5566 147.508 28.4411C147.346 28.3256 147.338 28.0946 147.483 27.7481C147.742 27.1417 148.009 26.6147 148.284 26.1671C148.576 25.7051 148.948 25.1998 149.401 24.6512C149.692 24.4058 150.008 24.2758 150.348 24.2614C150.688 24.2325 150.971 24.3119 151.197 24.4996C151.424 24.6729 151.489 24.9183 151.392 25.2359C151.036 26.3765 150.396 27.3582 149.474 28.1812Z" fill="#34DAD2"/>
<path d="M133.064 32.7074C131.785 34.2667 130.418 35.5661 128.961 36.6056C127.505 37.6306 126.275 38.4897 125.271 39.1827C124.559 39.6591 123.936 40.2005 123.402 40.8069C122.804 41.601 122.035 42.3012 121.096 42.9076C120.611 43.2829 120.117 43.5139 119.615 43.6006C119.114 43.6727 118.628 43.6439 118.159 43.5139C117.949 43.4562 117.827 43.3407 117.795 43.1674C117.762 42.9942 117.819 42.7921 117.965 42.5611C118.208 42.2434 118.507 41.9258 118.863 41.6082C119.332 41.2328 119.81 40.8719 120.295 40.5254C120.344 40.4965 120.4 40.4459 120.465 40.3738C122.213 39.0744 122.893 37.7606 122.504 36.4323C122.391 36.1147 122.229 35.8115 122.019 35.5227C121.986 35.4217 121.93 35.3278 121.849 35.2412C121.784 35.0391 121.695 34.8442 121.582 34.6565C121.339 34.31 121.129 33.9274 120.951 33.5087C120.514 32.2382 121.137 31.0327 122.82 29.8921C124.276 28.8526 125.838 28.1235 127.505 27.7048C128.54 27.4883 129.398 27.5677 130.078 27.943C130.725 28.3184 130.83 28.9392 130.393 29.8055C130.037 30.3397 129.576 30.6717 129.01 30.8017C128.233 30.9027 127.82 30.715 127.772 30.2386C127.772 30.0076 127.772 29.8271 127.772 29.6972C127.82 29.5384 127.82 29.4229 127.772 29.3507C127.739 29.2641 127.642 29.2424 127.48 29.2857C127.319 29.3146 127.027 29.4084 126.607 29.5673C125.959 29.856 125.352 30.2169 124.786 30.6501C123.864 31.3286 123.507 32.0289 123.718 32.7507C123.799 33.0106 123.888 33.2344 123.985 33.4221C124.131 33.682 124.26 33.9202 124.373 34.1367C124.648 34.5554 124.891 34.9741 125.102 35.3928C125.328 35.7971 125.474 36.2374 125.538 36.7138C125.749 36.7427 126.429 36.3962 127.578 35.6743C128.743 34.938 130.304 33.5376 132.263 31.473C133.056 30.5779 133.768 29.4662 134.399 28.1379C135.046 26.7952 135.92 25.0483 137.02 22.8971L138.04 20.8398L138.356 20.1251C138.566 19.6775 138.445 19.4538 137.991 19.4538C137.49 19.4538 136.988 19.4393 136.486 19.4104H134.617C134.229 19.4826 133.889 19.4393 133.598 19.2805C133.501 19.2083 133.42 19.1217 133.355 19.0206C133.306 18.9051 133.314 18.768 133.379 18.6092C133.493 18.4503 133.63 18.3276 133.792 18.241C133.954 18.1399 134.124 18.0894 134.302 18.0894C134.933 18.0461 135.588 18.0244 136.268 18.0244H137.457C137.943 18.0244 138.453 18.01 138.987 17.9811C139.31 17.9522 139.561 17.8079 139.739 17.548C139.95 17.2015 140.144 16.855 140.322 16.5085L142.094 13.2167C142.515 12.4515 142.927 11.708 143.332 10.9861L143.38 10.8779C143.445 10.719 143.518 10.5819 143.599 10.4664C144.052 9.83113 144.675 9.52794 145.468 9.55681C146.099 9.58569 146.31 9.91775 146.099 10.553C145.954 10.9284 145.776 11.3399 145.565 11.7874L145.298 12.2639L144.594 13.6499C144.028 14.7038 143.478 15.7505 142.943 16.79C142.62 17.3675 142.515 17.7285 142.628 17.8728C142.741 18.0172 143.13 18.0677 143.793 18.0244C145.039 18.0677 146.285 18.0894 147.531 18.0894C148.421 18.0894 149.312 18.1038 150.202 18.1327H150.469C150.728 18.1038 150.954 18.1038 151.148 18.1327C151.343 18.1616 151.512 18.2266 151.658 18.3276C151.69 18.3854 151.723 18.4503 151.755 18.5225C151.788 18.5803 151.788 18.6525 151.755 18.7391C151.723 18.8402 151.65 18.9268 151.537 18.999C151.44 19.0567 151.351 19.1 151.27 19.1289C150.784 19.3166 150.323 19.396 149.886 19.3671H149.668L145.614 19.4104C144.869 19.4104 144.125 19.4104 143.38 19.4104H143.211C142.887 19.4104 142.547 19.4249 142.191 19.4538C141.803 19.4971 141.503 19.6775 141.293 19.9952C141.147 20.1829 141.042 20.3705 140.977 20.5582C140.087 22.3052 139.238 24.0666 138.428 25.8424C137.635 27.6182 136.972 29.3796 136.438 31.1265C135.969 32.527 135.75 33.8624 135.782 35.1329C135.831 35.8404 136.001 36.3962 136.292 36.8005C136.6 37.1903 137.077 37.3491 137.724 37.2769C138.89 37.1181 139.909 36.7716 140.783 36.2374C141.657 35.6888 142.45 35.0968 143.162 34.4616C143.842 33.8263 144.521 33.3066 145.201 32.9023C145.509 32.7435 145.703 32.7002 145.784 32.7724C145.881 32.8301 145.921 32.9312 145.905 33.0756C145.889 33.2055 145.848 33.3355 145.784 33.4654C145.638 33.7541 145.444 34.0285 145.201 34.2883C144.974 34.5338 144.829 34.6926 144.764 34.7648L144.716 34.8081C144.068 35.5011 143.259 36.1941 142.288 36.8871C141.333 37.5657 140.314 38.1215 139.229 38.5546C138.145 38.9733 137.109 39.1538 136.122 39.096C134.763 38.9372 133.849 38.4464 133.379 37.6234C132.926 36.786 132.748 35.7971 132.845 34.6565L133.064 32.7074Z" fill="#34DAD2"/>
<path d="M121.849 33.2708C122.06 33.6317 121.712 34.1948 120.805 34.9599C119.899 35.7107 118.305 36.6275 116.023 37.7103C115.166 38.0279 114.543 38.2806 114.154 38.4683C113.766 38.656 113.483 38.8942 113.305 39.1829C113.127 39.4717 112.932 39.9192 112.722 40.5256C112.544 40.9732 112.309 41.5723 112.018 42.3231C111.63 43.2471 111.241 44.2 110.853 45.1817C110.141 47.1886 109.291 49.1665 108.304 51.1156C107.333 53.0791 106.071 54.7899 104.517 56.2481C102.964 57.7063 100.965 58.6736 98.5212 59.1501C96.0614 59.5687 93.6825 59.6337 91.3845 59.345C89.0865 59.0562 86.837 58.4859 84.6361 57.6341C83.746 57.2732 82.9449 56.7967 82.2329 56.2048C81.0515 55.122 80.9625 53.9092 81.9659 52.5665C82.4999 51.9024 83.123 51.3033 83.835 50.7691C85.2591 49.744 86.748 48.8056 88.3016 47.9537C91.1984 46.3945 94.1599 44.9652 97.1861 43.6658C100.212 42.3664 103.271 41.1103 106.362 39.8976C106.572 39.811 106.807 39.7171 107.066 39.6161C107.907 39.2696 108.773 38.9231 109.663 38.5766C110.278 38.3744 110.691 38.0063 110.901 37.4721C110.966 37.2844 110.982 37.1111 110.95 36.9523C110.918 36.8513 110.853 36.7935 110.756 36.7791C110.675 36.7646 110.578 36.7863 110.464 36.844C110.157 37.0029 109.841 37.1833 109.518 37.3855C109.34 37.4721 109.145 37.5804 108.935 37.7103C107.818 38.2878 106.661 38.5405 105.464 38.4683C103.57 38.4683 102.607 37.7103 102.575 36.1944C102.543 34.9527 102.777 33.7761 103.279 32.6644C103.797 31.5527 104.525 30.506 105.464 29.5242C105.561 29.4231 105.698 29.3437 105.876 29.286C106.055 29.2138 106.233 29.1633 106.411 29.1344C106.443 29.1344 106.483 29.12 106.532 29.0911C106.888 29.0622 107.163 29.1416 107.357 29.3293C107.551 29.517 107.592 29.7552 107.479 30.044C107.268 30.4482 107.058 30.8597 106.847 31.2784C106.669 31.596 106.491 31.9136 106.313 32.2312C105.601 33.4729 105.278 34.7723 105.342 36.1294C105.375 36.4181 105.512 36.6275 105.755 36.7574C106.014 36.8874 106.305 36.8874 106.629 36.7574C107.584 36.4109 108.417 35.92 109.129 35.2848C111.055 33.7255 112.641 31.9281 113.887 29.8924C114.065 29.6036 114.267 29.3582 114.494 29.1561C114.737 28.9539 115.052 28.8384 115.441 28.8096C115.942 28.7662 116.323 28.8673 116.582 29.1127C116.857 29.3437 116.938 29.6541 116.824 30.044C116.371 31.3433 115.894 32.6283 115.392 33.8988C115.36 33.9998 115.319 34.0937 115.271 34.1803C115.141 34.4691 115.02 34.7723 114.907 35.0899C114.793 35.4075 114.737 35.689 114.737 35.9345C114.737 36.1655 114.85 36.281 115.077 36.281C115.967 36.1222 117.261 35.4869 118.961 34.3752C120.676 33.2635 121.639 32.8954 121.849 33.2708ZM109.129 41.9549C109.129 41.8828 109.154 41.8178 109.202 41.76C109.299 41.6012 109.356 41.428 109.372 41.2403C109.388 41.0526 109.332 40.8577 109.202 40.6556C109.089 40.6556 109 40.6556 108.935 40.6556C108.709 40.6989 108.506 40.7494 108.328 40.8072C107.972 40.9371 107.616 41.0815 107.26 41.2403C104.412 42.4097 101.564 43.6153 98.7154 44.8569C95.8672 46.0985 93.0756 47.4196 90.3406 48.82C88.6738 49.6718 87.104 50.668 85.6313 51.8086C84.4338 52.7614 83.8593 53.5916 83.9078 54.299C83.9564 55.0209 84.6604 55.6706 86.0197 56.2481C89.1107 57.6774 92.4364 58.2621 95.9967 58.0023C98.4241 57.7857 100.398 56.97 101.92 55.5551C103.425 54.1402 104.655 52.4438 105.609 50.4659C106.58 48.5024 107.422 46.5389 108.134 44.5754C108.442 43.6514 108.773 42.7779 109.129 41.9549Z" fill="#34DAD2"/>
<path d="M168.556 57.6995H166.881V50.2879H168.498V52.3828L168.633 52.3987C169.094 50.7798 170.018 50.2085 171.404 50.2085H171.75V51.7321H171.288C169.345 51.7321 168.556 52.3669 168.556 54.0334V57.6995Z" fill="#F7F6F9"/>
<path d="M160.996 51.1925C159.417 51.1925 158.455 51.9226 158.263 53.3986H163.517C163.44 51.986 162.651 51.1925 160.996 51.1925ZM161.072 57.8741C158.282 57.8741 156.569 56.5092 156.569 54.0493C156.569 51.5734 158.32 50.0974 161.034 50.0974C163.728 50.0974 165.075 51.4623 165.075 53.5097C165.075 53.7318 165.056 54.0651 165.018 54.3984H158.244C158.378 55.9062 159.34 56.7314 161.072 56.7314C162.689 56.7314 163.247 56.0649 163.536 55.2396L164.998 55.5729C164.556 56.9854 163.401 57.8741 161.072 57.8741Z" fill="#F7F6F9"/>
<path d="M148.559 53.462V57.6996H146.885V50.2879H148.521V52.2082H148.694C149.194 50.891 150.387 50.0974 151.946 50.0974C153.948 50.0974 154.852 51.1766 154.852 52.7955V57.6996H153.178V53.1287C153.178 52.113 152.678 51.3512 151.234 51.3512C149.637 51.3512 148.559 52.1924 148.559 53.462Z" fill="#F7F6F9"/>
<path d="M138.317 53.462V57.6996H136.642V50.2879H138.278V52.2082H138.451C138.952 50.891 140.145 50.0974 141.704 50.0974C143.705 50.0974 144.61 51.1766 144.61 52.7955V57.6996H142.935V53.1287C142.935 52.113 142.435 51.3512 140.992 51.3512C139.394 51.3512 138.317 52.1924 138.317 53.462Z" fill="#F7F6F9"/>
<path d="M129.98 56.7474C131.635 56.7474 132.694 55.9856 132.694 54.9381V54.5255H130.057C128.883 54.5255 128.21 54.9064 128.21 55.6365C128.21 56.2237 128.652 56.7474 129.98 56.7474ZM132.771 57.6997V55.938H132.598C132.155 57.1601 131 57.8584 129.403 57.8584C127.709 57.8584 126.613 57.2236 126.613 55.7952C126.613 54.5096 127.613 53.5733 129.807 53.5733H132.694V52.9702C132.694 51.8592 132.174 51.2561 130.712 51.2561C129.499 51.2561 128.826 51.7481 128.537 52.7321L126.959 52.4147C127.325 50.9863 128.614 50.1134 130.769 50.1134C133.271 50.1134 134.368 51.1133 134.368 52.9543V57.6997H132.771Z" fill="#F7F6F9"/>
<path d="M124.712 47.5105V57.6996H123.038V47.5105H124.712Z" fill="#F7F6F9"/>
<path d="M116.992 56.668C118.685 56.668 119.493 55.7792 119.493 54.0016C119.493 52.2082 118.704 51.3512 116.992 51.3512C115.375 51.3512 114.336 52.2717 114.336 53.7318V54.3032C114.336 55.6998 115.375 56.668 116.992 56.668ZM121.148 54.0016C121.148 56.5251 119.859 57.89 117.742 57.89C115.991 57.89 114.894 56.9695 114.451 55.6998H114.336V60.1278H112.661V50.2879H114.336V52.24H114.471C114.913 50.9703 115.933 50.0974 117.665 50.0974C119.917 50.0974 121.148 51.494 121.148 54.0016Z" fill="#F7F6F9"/>
</g>
<defs>
<linearGradient id="paint0_linear_502_11080" x1="32.4938" y1="52.5723" x2="64.3871" y2="-13.3679" gradientUnits="userSpaceOnUse">
<stop stop-color="#20B2AA"/>
<stop offset="0.14" stop-color="#68E4DE"/>
<stop offset="0.29" stop-color="#E49BF3"/>
<stop offset="0.5" stop-color="#F8E4FC"/>
<stop offset="0.65" stop-color="#E49BF3"/>
<stop offset="0.825" stop-color="#68E4DE"/>
<stop offset="1" stop-color="#20B2AA"/>
</linearGradient>
<clipPath id="clip0_502_11080">
<rect width="172" height="60.1399" fill="white"/>
</clipPath>
</defs>
</svg>
