<svg width="172" height="61" viewBox="0 0 172 61" fill="none" xmlns="http://www.w3.org/2000/svg">
<g clip-path="url(#clip0_502_11063)">
<path d="M104.493 0.0295608C103.323 -0.0664046 102.215 0.0712848 101.172 0.442629C100.947 0.538594 100.718 0.622043 100.48 0.697146C99.3806 1.08935 98.3095 1.52746 97.2665 2.01145C93.0291 4.13521 88.9367 6.50514 84.9892 9.12958C82.0146 11.1073 79.1522 13.2477 76.3974 15.5509C76.3974 15.5593 76.4021 15.5676 76.4068 15.5801C76.477 15.9598 76.1262 16.327 75.7146 16.3729C75.6211 16.3812 75.5369 16.3729 75.4527 16.3604C74.8727 16.8569 74.2974 17.3576 73.7315 17.8666C71.8046 19.6607 69.1433 22.2601 65.7618 25.6565C62.3756 29.057 59.4477 32.0236 56.9736 34.5562C55.1495 36.413 54.186 37.381 54.0785 37.4561C54.1627 37.2641 54.2749 36.9929 54.4152 36.6341C54.5555 36.2753 54.7052 35.9123 54.8595 35.5409C55.0139 35.1195 55.1308 34.8274 55.215 34.6689C55.6032 33.5507 55.9961 32.445 56.3843 31.3602C57.1887 29.2489 57.9698 27.121 58.7275 24.9764C59.0128 24.1002 59.2607 23.1989 59.4711 22.2685C59.4945 22.1934 59.5179 22.1225 59.5413 22.0474C59.6722 21.3297 59.5273 20.7915 59.1157 20.4326C58.6994 20.0738 58.1943 19.9528 57.5909 20.0696C56.7865 20.2824 56.099 20.6997 55.533 21.3214C55.4021 21.459 55.2711 21.6009 55.1448 21.7469C54.1486 22.7942 53.1758 23.8582 52.217 24.9472C50.8092 26.5744 49.4014 28.2183 47.9936 29.8873C47.6054 30.3504 47.3107 30.5924 47.1143 30.6091C46.9179 30.6258 46.9927 30.3171 47.3341 29.6829C48.4473 27.6467 49.4949 25.5605 50.4865 23.4368C51.4733 21.3088 52.3479 19.1058 53.1056 16.8235C53.1524 16.69 53.2459 16.3395 53.288 16.206C53.26 16.2394 53.1524 16.436 53.1056 16.4611C52.68 16.7156 52.2544 16.1726 52.68 15.9181C52.9747 15.7428 53.2693 15.9682 53.288 16.206C53.6903 14.8374 53.9382 13.4063 54.013 11.9084C54.0177 11.6289 54.013 11.3618 53.9943 11.0948C53.6108 11.3785 53.0963 10.8611 53.4751 10.5565C53.6341 10.4314 53.8119 10.4522 53.9475 10.5357C53.7464 8.55796 53.0168 7.05589 51.7399 6.03783C50.1778 4.79862 48.045 4.13521 45.3417 4.05176C42.6384 3.96831 39.5983 4.33966 36.2261 5.16997C32.8539 6.00028 29.4022 7.1602 25.8757 8.65393C22.3492 10.1476 18.963 11.8458 15.7218 13.7526C12.4806 15.6594 9.63695 17.6496 7.20019 19.7317C4.85698 21.7344 3.08905 23.6955 1.8964 25.6148C2.03203 25.694 2.14896 25.8067 2.21911 25.9486C2.39684 26.299 2.16299 26.733 1.77479 26.8707C1.58303 26.9374 1.3866 26.9332 1.21354 26.8707C0.806638 27.701 0.465212 28.5688 0.189265 29.4659C0.0115364 29.9708 -0.0399114 30.534 0.0302446 31.1432C0.137817 31.6063 0.395056 31.8984 0.811315 32.0152C1.07323 32.057 1.30708 32.0278 1.52223 31.9193C1.73738 31.815 1.8543 31.6564 1.87769 31.4436C1.94784 30.3755 2.20976 29.3908 2.65876 28.4812C3.5474 26.5828 4.62313 24.8387 5.89061 23.2532C7.0973 21.8179 8.78104 20.2824 10.9418 18.6427C12.6583 17.3409 14.5759 16.0516 16.6806 14.7748C16.545 14.6288 16.5169 14.3952 16.7461 14.2575C16.9753 14.1198 17.2044 14.2283 17.3073 14.3993C17.6441 14.1991 17.9902 13.9988 18.3363 13.7985C20.2539 12.6928 22.2276 11.6622 24.2481 10.6901C24.1967 10.3771 24.4165 10.0475 24.7439 9.93068C25.0385 9.82637 25.3472 9.8973 25.567 10.0725C26.0348 9.85558 26.4978 9.63862 26.9655 9.42999C29.9495 8.11151 32.8586 7.04755 35.6976 6.24645C38.5366 5.44535 41.123 5.01976 43.4568 4.96969C45.786 4.92379 47.6709 5.35772 49.1021 6.27565C50.5332 7.19358 51.3284 8.72069 51.4827 10.8528C51.5295 12.1838 51.3892 13.4605 51.0571 14.6872C50.4537 16.9904 49.6727 19.1851 48.7139 21.2755C48.2462 22.3186 47.7597 23.345 47.264 24.3672C47.3014 24.4799 47.2827 24.6092 47.1564 24.7135C47.133 24.7344 47.105 24.7386 47.0816 24.7552C45.2435 28.5229 43.237 32.1613 41.0622 35.6744C41.123 35.7954 41.109 35.9456 40.964 36.0625C40.9032 36.1125 40.8377 36.1334 40.7722 36.1417C40.6319 36.3671 40.4963 36.5924 40.3559 36.8135C39.7853 37.7231 39.2101 38.6327 38.6348 39.5381C38.8125 39.584 38.9809 39.6799 39.0978 39.8218C39.3551 40.1306 39.2241 40.6021 38.878 40.8065C38.5553 40.9984 38.153 40.9442 37.8864 40.723C36.6844 42.6173 35.4778 44.5074 34.2664 46.3934C33.2468 47.9997 32.2178 49.6019 31.1795 51.2083C30.81 51.7674 30.4733 52.3599 30.1693 52.9816C30.0851 53.1944 30.1178 53.4072 30.2581 53.6325C30.3985 53.8536 30.5996 53.9955 30.8615 54.0581C31.4414 54.154 31.9045 54.0581 32.2553 53.7827C32.606 53.5031 33.1392 53.3195 33.4198 52.8731C34.3974 51.8467 36.0437 50.0317 37.8631 47.9371C37.6526 47.8287 37.5403 47.5533 37.7742 47.3655C37.966 47.2111 38.1951 47.2696 38.3261 47.4031C40.6412 44.716 43.1669 41.6451 44.9114 39.1834C47.5119 35.5159 48.3631 34.3768 50.5426 31.2517C50.9822 30.7468 52.4134 28.9235 52.5444 28.9861C52.5678 28.9861 53.0822 28.1266 54.0083 28.5062C54.3638 28.7941 53.9709 29.8372 53.8165 30.2586C53.2927 32.299 52.6753 34.2057 51.7165 37.0138C51.4079 37.9025 51.174 38.8204 51.0056 39.7676C50.9589 40.1139 51.043 40.4185 51.2629 40.6772C51.4593 40.9066 51.7025 41.0485 51.9972 41.1069C52.0299 40.9525 52.1094 40.8023 52.2451 40.698C52.5771 40.431 53.0682 40.4769 53.3722 40.7564C53.419 40.7981 53.4564 40.8482 53.4845 40.8983C54.0551 40.698 54.621 40.4143 54.9905 40.1848C55.5892 39.8135 55.7014 39.7884 56.286 39.2752C56.9689 38.7537 60.9771 35.1696 63.5168 32.6244C65.6215 30.5173 68.1237 28.3477 70.3921 26.2406C70.3874 26.1488 70.4202 26.0529 70.523 25.9736C70.6026 25.911 70.6867 25.8901 70.7709 25.8901C71.1077 25.573 71.4398 25.2559 71.7625 24.943C71.8934 24.8262 78.1046 19.6315 78.2122 19.5147C83.8433 15.5926 84.0585 15.4466 85.5037 14.5871C89.4839 12.3549 93.1694 13.2018 94.1376 14.8249C95.2086 18.4132 93.3331 20.5161 90.6532 26.6871C88.1182 32.5201 85.3961 36.6383 82.2344 42.6632C80.6957 45.4379 78.1186 49.8022 76.7108 52.6144C75.8222 53.8912 74.985 55.6394 74.1057 56.9162C73.7175 57.4669 73.362 58.0469 73.0393 58.6561C72.9925 58.7395 72.9785 58.8522 73.0019 58.9982C73.0253 59.1401 73.0674 59.2444 73.1282 59.307C73.1983 59.3821 73.2919 59.4405 73.4135 59.4905C73.5304 59.5364 73.6427 59.5615 73.7502 59.5615C73.9888 59.5615 74.1758 59.4989 74.3161 59.3695C74.4565 59.2444 74.5827 59.0858 74.6903 58.8939C74.7137 58.873 74.7371 58.8355 74.7605 58.7812C75.2329 58.1595 75.7006 57.5337 76.1636 56.912C78.1139 54.2625 80.0596 51.6005 81.9865 48.9302C83.9135 46.2598 85.803 43.5394 87.6505 40.7731C91.205 35.4074 94.6146 29.9249 97.8839 24.3255L97.9801 24.1511C97.9801 24.1511 97.644 24.7304 97.8839 24.3255C98.0052 24.1177 97.959 24.1684 98.1412 23.879C100.003 20.6746 101.822 17.4368 103.59 14.1532C104.549 12.2964 105.442 10.4063 106.27 8.48286C106.354 8.29093 106.434 8.10317 106.518 7.91124C107.112 6.63448 107.472 5.26593 107.603 3.80976C107.795 1.46487 106.761 0.200629 104.516 0.00869873L104.493 0.0295608ZM38.0922 44.8871C37.6666 45.1416 37.2223 44.5491 37.6479 44.2946C38.0735 44.0401 38.5179 44.6326 38.0922 44.8871ZM48.2415 33.2628C47.9094 33.5298 47.4183 33.4839 47.1143 33.2044C46.815 32.929 46.8664 32.4492 47.1798 32.1988C47.5119 31.9318 48.003 31.9777 48.307 32.2572C48.6063 32.5326 48.5548 33.0124 48.2415 33.2628ZM55.4114 32.7037C55.0279 33.0083 54.4994 32.4784 54.8782 32.1738C55.2618 31.8692 55.7903 32.3991 55.4114 32.7037ZM56.0943 22.3478C56.0943 22.3686 56.0802 22.3811 56.0569 22.3811V22.3478C56.0335 22.3269 55.9914 22.2935 55.9306 22.2518C55.9914 22.2935 56.0428 22.3269 56.0896 22.3478H56.0943ZM54.3451 27.822C54.6771 27.5549 55.1682 27.6008 55.4722 27.8804C55.7716 28.1558 55.7201 28.6356 55.4067 28.8859C55.0747 29.153 54.5836 29.1071 54.2796 28.8275C53.9802 28.5521 54.0317 28.0723 54.3451 27.822ZM57.156 38.0694C56.7725 38.374 56.2439 37.8441 56.6228 37.5395C57.0063 37.2349 57.5348 37.7648 57.156 38.0694ZM70.4155 25.2059C69.9712 25.2559 69.597 24.968 69.5268 24.5884C69.4567 24.2087 69.8075 23.8415 70.219 23.7956C70.6634 23.7455 71.0375 24.0334 71.1077 24.4131C71.1778 24.7928 70.8271 25.16 70.4155 25.2059ZM88.8993 13.1142C88.4549 13.1643 88.0808 12.8764 88.0106 12.4967C87.9405 12.117 88.2912 11.7499 88.7028 11.704C89.1471 11.6539 89.5213 11.9418 89.5915 12.3215C89.6616 12.7012 89.3108 13.0683 88.8993 13.1142ZM91.1255 11.3284C90.8169 11.6163 90.3258 11.608 89.9984 11.3535C89.6757 11.1031 89.685 10.6191 89.9703 10.3479C90.279 10.06 90.7701 10.0684 91.0975 10.3229C91.4202 10.5732 91.4108 11.0572 91.1255 11.3284ZM80.3636 50.8161C80.0081 51.1499 79.4329 50.6576 79.7883 50.3279C80.1438 49.9941 80.7191 50.4865 80.3636 50.8161ZM84.8489 44.2529C84.3391 44.3071 84.2409 43.602 84.7507 43.5478C85.2605 43.4935 85.3587 44.1987 84.8489 44.2529ZM86.8413 38.9581C86.3316 39.0124 86.2333 38.3072 86.7431 38.253C87.2529 38.1987 87.3512 38.9039 86.8413 38.9581ZM88.1416 36.9846C87.7861 37.3184 87.2108 36.826 87.5663 36.4964C87.9217 36.1626 88.497 36.655 88.1416 36.9846ZM97.159 4.27707C97.5144 3.94328 98.0897 4.43562 97.7342 4.76524C97.3788 5.09904 96.8035 4.60669 97.159 4.27707ZM94.3434 11.3326C94.8532 11.2784 94.9514 11.9835 94.4416 12.0377C93.9318 12.092 93.8336 11.3869 94.3434 11.3326ZM94.8999 18.7595C94.3901 18.8137 94.2919 18.1086 94.8017 18.0544C95.3115 18.0001 95.4097 18.7053 94.8999 18.7595ZM95.5734 16.2686C95.9289 15.9348 96.5042 16.4271 96.1487 16.7567C95.7933 17.0905 95.218 16.5982 95.5734 16.2686ZM96.2329 25.815C95.8774 26.1488 95.3022 25.6565 95.6576 25.3269C96.0131 24.9931 96.5884 25.4854 96.2329 25.815ZM96.434 6.74296C95.9242 6.79721 95.826 6.09207 96.3358 6.03783C96.8456 5.98359 96.9438 6.68872 96.434 6.74296ZM97.636 15.4299C97.1917 15.48 96.8175 15.1921 96.7474 14.8124C96.6772 14.4327 97.028 14.0655 97.4396 14.0196C97.8839 13.9696 98.2581 14.2575 98.3282 14.6372C98.3984 15.0168 98.0476 15.384 97.636 15.4299ZM101.841 11.7332C101.485 12.067 100.91 11.5746 101.265 11.245C101.621 10.9112 102.196 11.4035 101.841 11.7332ZM104.755 3.95162C104.446 4.23952 103.955 4.23117 103.627 3.97666C103.305 3.72631 103.314 3.24231 103.599 2.97111C103.908 2.68321 104.399 2.69156 104.726 2.94607C105.049 3.19642 105.04 3.68042 104.755 3.95162Z" fill="url(#paint0_linear_502_11063)"/>
<path d="M104.755 3.95162C104.446 4.23952 103.955 4.23117 103.627 3.97666C103.305 3.72631 103.314 3.24231 103.599 2.97111C103.908 2.68321 104.399 2.69156 104.726 2.94607C105.049 3.19642 105.04 3.68042 104.755 3.95162Z" fill="white"/>
<path d="M101.841 11.7332C101.485 12.067 100.91 11.5746 101.265 11.245C101.621 10.9112 102.196 11.4035 101.841 11.7332Z" fill="white"/>
<path d="M97.636 15.4299C97.1917 15.48 96.8175 15.1921 96.7474 14.8124C96.6772 14.4327 97.028 14.0655 97.4396 14.0196C97.8839 13.9696 98.2581 14.2575 98.3282 14.6372C98.3984 15.0168 98.0476 15.384 97.636 15.4299Z" fill="white"/>
<path d="M91.1255 11.3284C90.8169 11.6163 90.3258 11.608 89.9984 11.3535C89.6757 11.1031 89.685 10.6191 89.9703 10.3479C90.279 10.06 90.7701 10.0684 91.0975 10.3229C91.4202 10.5732 91.4108 11.0572 91.1255 11.3284Z" fill="white"/>
<path d="M95.5734 16.2686C95.9289 15.9348 96.5042 16.4271 96.1487 16.7567C95.7933 17.0905 95.218 16.5982 95.5734 16.2686Z" fill="white"/>
<path d="M94.3434 11.3326C94.8532 11.2784 94.9514 11.9835 94.4416 12.0377C93.9318 12.092 93.8336 11.3869 94.3434 11.3326Z" fill="white"/>
<path d="M96.434 6.74296C95.9242 6.79721 95.826 6.09207 96.3358 6.03783C96.8456 5.98359 96.9438 6.68872 96.434 6.74296Z" fill="white"/>
<path d="M97.159 4.27707C97.5144 3.94328 98.0897 4.43562 97.7342 4.76524C97.3788 5.09904 96.8035 4.60669 97.159 4.27707Z" fill="white"/>
<path d="M94.8999 18.7595C94.3901 18.8137 94.2919 18.1086 94.8017 18.0544C95.3115 18.0001 95.4097 18.7053 94.8999 18.7595Z" fill="white"/>
<path d="M88.8993 13.1142C88.4549 13.1643 88.0808 12.8764 88.0106 12.4967C87.9405 12.117 88.2912 11.7499 88.7028 11.704C89.1471 11.6539 89.5213 11.9418 89.5915 12.3215C89.6616 12.7012 89.3108 13.0683 88.8993 13.1142Z" fill="white"/>
<path d="M96.2329 25.815C95.8774 26.1488 95.3022 25.6565 95.6576 25.3269C96.0131 24.9931 96.5884 25.4854 96.2329 25.815Z" fill="white"/>
<path d="M70.4155 25.2059C69.9712 25.2559 69.597 24.968 69.5268 24.5884C69.4567 24.2087 69.8075 23.8415 70.219 23.7956C70.6634 23.7455 71.0375 24.0334 71.1077 24.4131C71.1778 24.7928 70.8271 25.16 70.4155 25.2059Z" fill="white"/>
<path d="M88.1416 36.9846C87.7861 37.3184 87.2108 36.826 87.5663 36.4964C87.9217 36.1626 88.497 36.655 88.1416 36.9846Z" fill="white"/>
<path d="M86.8413 38.9581C86.3316 39.0124 86.2333 38.3072 86.7431 38.253C87.2529 38.1987 87.3512 38.9039 86.8413 38.9581Z" fill="white"/>
<path d="M84.8489 44.2529C84.3391 44.3071 84.2409 43.602 84.7507 43.5478C85.2605 43.4935 85.3587 44.1987 84.8489 44.2529Z" fill="white"/>
<path d="M80.3636 50.8161C80.0081 51.1499 79.4329 50.6576 79.7883 50.3279C80.1438 49.9941 80.7191 50.4865 80.3636 50.8161Z" fill="white"/>
<path d="M57.156 38.0694C56.7725 38.374 56.2439 37.8441 56.6228 37.5395C57.0063 37.2349 57.5348 37.7648 57.156 38.0694Z" fill="white"/>
<path d="M55.4114 32.7037C55.0279 33.0083 54.4994 32.4784 54.8782 32.1738C55.2618 31.8692 55.7903 32.3991 55.4114 32.7037Z" fill="white"/>
<path d="M54.3451 27.822C54.6771 27.5549 55.1682 27.6008 55.4722 27.8804C55.7716 28.1558 55.7201 28.6356 55.4067 28.8859C55.0747 29.153 54.5836 29.1071 54.2796 28.8275C53.9802 28.5521 54.0317 28.0723 54.3451 27.822Z" fill="white"/>
<path d="M48.2415 33.2628C47.9094 33.5298 47.4183 33.4839 47.1143 33.2044C46.815 32.929 46.8664 32.4492 47.1798 32.1988C47.5119 31.9318 48.003 31.9777 48.307 32.2572C48.6063 32.5326 48.5548 33.0124 48.2415 33.2628Z" fill="white"/>
<path d="M38.0922 44.8871C37.6666 45.1416 37.2223 44.5491 37.6479 44.2946C38.0735 44.0401 38.5179 44.6326 38.0922 44.8871Z" fill="white"/>
<path d="M76.4068 15.5801C76.4021 15.5676 76.3974 15.5593 76.3974 15.5509L75.4527 16.3604C75.5369 16.3729 75.6211 16.3812 75.7146 16.3729C76.1262 16.327 76.477 15.9598 76.4068 15.5801Z" fill="white"/>
<path d="M52.2451 40.698C52.1094 40.8023 52.0299 40.9525 51.9972 41.1069C51.9972 41.1069 52.2602 41.1838 52.7491 41.1069C53.2381 41.03 53.4845 40.8983 53.4845 40.8983C53.4564 40.8482 53.419 40.7981 53.3722 40.7564C53.0682 40.4769 52.5771 40.431 52.2451 40.698Z" fill="white"/>
<path d="M37.7742 47.3655C37.5403 47.5533 37.6526 47.8287 37.8631 47.9371L38.3261 47.4031C38.1951 47.2696 37.966 47.2111 37.7742 47.3655Z" fill="white"/>
<path d="M39.0978 39.8218C38.9809 39.6799 38.8125 39.584 38.6348 39.5381L37.8864 40.723C38.153 40.9442 38.5553 40.9984 38.878 40.8065C39.2241 40.6021 39.3551 40.1306 39.0978 39.8218Z" fill="white"/>
<path d="M40.964 36.0625C41.109 35.9456 41.123 35.7954 41.0622 35.6744L40.7722 36.1417C40.8377 36.1334 40.9032 36.1125 40.964 36.0625Z" fill="white"/>
<path d="M53.1056 16.4611C53.1524 16.436 53.26 16.2394 53.288 16.206C53.2693 15.9682 52.9747 15.7428 52.68 15.9181C52.2544 16.1726 52.68 16.7156 53.1056 16.4611Z" fill="white"/>
<path d="M53.4751 10.5565C53.0963 10.8611 53.6108 11.3785 53.9943 11.0948L53.9475 10.5357C53.8119 10.4522 53.6341 10.4314 53.4751 10.5565Z" fill="white"/>
<path d="M16.7461 14.2575C16.5169 14.3952 16.545 14.6288 16.6806 14.7748L17.3073 14.3993C17.2044 14.2283 16.9753 14.1198 16.7461 14.2575Z" fill="white"/>
<path d="M24.7439 9.93068C24.4165 10.0475 24.1967 10.3771 24.2481 10.6901L25.567 10.0725C25.3472 9.8973 25.0385 9.82637 24.7439 9.93068Z" fill="white"/>
<path d="M2.21911 25.9486C2.14896 25.8067 2.03203 25.694 1.8964 25.6148L1.21354 26.8707C1.3866 26.9332 1.58303 26.9374 1.77479 26.8707C2.16299 26.733 2.39684 26.299 2.21911 25.9486Z" fill="white"/>
<path d="M171.03 33.2706C171.111 33.2706 171.2 33.2922 171.297 33.3356C171.411 33.3644 171.5 33.4077 171.564 33.4655C171.791 33.6532 171.815 33.877 171.637 34.1368C171.411 34.3534 171.192 34.5411 170.982 34.6999C169.736 35.7249 168.352 36.5839 166.831 37.2769C164.436 38.3597 161.798 38.9155 158.917 38.9444C157.849 38.9733 156.749 38.8144 155.616 38.468C153.544 37.7461 152.703 36.4107 153.091 34.4617C153.56 32.657 154.701 31.1628 156.514 29.9789C158.326 28.7806 160.268 28.2609 162.34 28.4197C162.728 28.4775 163.117 28.5569 163.505 28.6579C163.861 28.7879 164.128 28.9828 164.306 29.2426C164.484 29.4881 164.5 29.6902 164.355 29.849C163.966 30.2244 163.521 30.3182 163.02 30.1305C162.275 29.8418 161.587 29.7624 160.956 29.8923C160.341 30.0222 159.718 30.3254 159.087 30.8018C158.472 31.2205 157.809 31.8269 157.097 32.6209C156.384 33.415 155.931 34.2162 155.737 35.0247C155.543 35.8332 155.947 36.4901 156.951 36.9954C158.084 37.4429 159.241 37.5512 160.422 37.3202C163.368 36.786 166.103 35.7899 168.627 34.3317C168.854 34.2307 169.056 34.1152 169.234 33.9852C169.509 33.7975 169.784 33.646 170.059 33.5305C170.351 33.4005 170.674 33.3139 171.03 33.2706Z" fill="#AC18CA"/>
<path d="M153.698 35.436C152.84 36.3455 151.821 37.1829 150.639 37.948C149.458 38.7132 148.123 39.2329 146.634 39.5072C145.145 39.7671 143.988 39.666 143.163 39.2041C142.337 38.7421 142.176 37.717 142.677 36.1289C143.325 34.4831 144.215 32.9167 145.347 31.4297C145.606 31.112 145.979 30.8883 146.464 30.7583C146.82 30.6862 147.128 30.7439 147.387 30.9316C147.662 31.1048 147.767 31.3286 147.702 31.6029C147.459 32.1226 147.192 32.6424 146.901 33.1621C146.61 33.6819 146.416 34.0211 146.318 34.1799C145.752 35.1039 145.356 36.0712 145.129 37.0818C145.129 37.6593 145.995 37.6954 147.726 37.1901C149.458 36.6848 151.141 35.7608 152.776 34.4181C154.41 33.0611 155.187 32.664 155.106 33.2271C155.041 33.7757 154.572 34.512 153.698 35.436ZM149.474 28.1813C149.393 28.2391 149.223 28.3112 148.964 28.3979C148.722 28.4701 148.455 28.5278 148.163 28.5711C147.888 28.6 147.67 28.5567 147.508 28.4412C147.346 28.3257 147.338 28.0947 147.484 27.7482C147.743 27.1418 148.01 26.6149 148.285 26.1673C148.576 25.7053 148.948 25.2 149.401 24.6514C149.693 24.406 150.008 24.2761 150.348 24.2616C150.688 24.2328 150.971 24.3122 151.198 24.4998C151.424 24.6731 151.489 24.9185 151.392 25.2361C151.036 26.3767 150.397 27.3584 149.474 28.1813Z" fill="#AC18CA"/>
<path d="M133.065 32.7067C131.786 34.2659 130.419 35.5653 128.962 36.6048C127.506 37.6298 126.276 38.4888 125.272 39.1818C124.56 39.6582 123.937 40.1996 123.403 40.806C122.804 41.6 122.036 42.3002 121.097 42.9066C120.611 43.2819 120.118 43.5129 119.616 43.5995C119.115 43.6717 118.629 43.6429 118.16 43.5129C117.949 43.4552 117.828 43.3397 117.796 43.1664C117.763 42.9932 117.82 42.7911 117.965 42.5601C118.208 42.2425 118.508 41.9248 118.864 41.6072C119.333 41.2319 119.81 40.8709 120.296 40.5244C120.344 40.4956 120.401 40.445 120.466 40.3728C122.214 39.0735 122.893 37.7597 122.505 36.4315C122.392 36.1139 122.23 35.8107 122.019 35.522C121.987 35.4209 121.93 35.3271 121.849 35.2404C121.785 35.0383 121.696 34.8434 121.582 34.6557C121.34 34.3093 121.129 33.9267 120.951 33.508C120.514 32.2375 121.137 31.032 122.82 29.8915C124.277 28.852 125.839 28.1229 127.506 27.7043C128.541 27.4877 129.399 27.5671 130.079 27.9425C130.726 28.3179 130.831 28.9386 130.394 29.8049C130.038 30.339 129.577 30.6711 129.011 30.801C128.234 30.9021 127.821 30.7144 127.773 30.238C127.773 30.007 127.773 29.8265 127.773 29.6966C127.821 29.5378 127.821 29.4223 127.773 29.3501C127.74 29.2635 127.643 29.2418 127.481 29.2851C127.319 29.314 127.028 29.4079 126.607 29.5667C125.96 29.8554 125.353 30.2163 124.787 30.6494C123.864 31.328 123.508 32.0282 123.719 32.75C123.8 33.0099 123.889 33.2337 123.986 33.4214C124.131 33.6812 124.261 33.9195 124.374 34.136C124.649 34.5547 124.892 34.9734 125.102 35.392C125.329 35.7963 125.475 36.2366 125.539 36.713C125.75 36.7419 126.429 36.3954 127.578 35.6736C128.744 34.9373 130.305 33.5369 132.263 31.4724C133.056 30.5773 133.769 29.4656 134.4 28.1374C135.047 26.7947 135.921 25.0478 137.021 22.8967L138.041 20.8394L138.356 20.1248C138.567 19.6772 138.445 19.4535 137.992 19.4535C137.491 19.4535 136.989 19.439 136.487 19.4101H134.618C134.23 19.4823 133.89 19.439 133.599 19.2802C133.501 19.208 133.421 19.1214 133.356 19.0203C133.307 18.9049 133.315 18.7677 133.38 18.6089C133.493 18.4501 133.631 18.3274 133.793 18.2407C133.955 18.1397 134.125 18.0892 134.303 18.0892C134.934 18.0458 135.589 18.0242 136.269 18.0242H137.458C137.944 18.0242 138.454 18.0097 138.988 17.9809C139.311 17.952 139.562 17.8076 139.74 17.5478C139.951 17.2013 140.145 16.8548 140.323 16.5083L142.095 13.2166C142.516 12.4515 142.928 11.7079 143.333 10.9861L143.381 10.8778C143.446 10.719 143.519 10.5819 143.6 10.4664C144.053 9.83112 144.676 9.52794 145.469 9.55681C146.1 9.58569 146.311 9.91774 146.1 10.553C145.955 10.9283 145.777 11.3398 145.566 11.7873L145.299 12.2638L144.595 13.6497C144.029 14.7036 143.479 15.7503 142.944 16.7898C142.621 17.3673 142.516 17.7282 142.629 17.8726C142.742 18.017 143.131 18.0675 143.794 18.0242C145.04 18.0675 146.286 18.0892 147.532 18.0892C148.423 18.0892 149.313 18.1036 150.203 18.1325H150.47C150.729 18.1036 150.955 18.1036 151.149 18.1325C151.344 18.1613 151.514 18.2263 151.659 18.3274C151.692 18.3851 151.724 18.4501 151.756 18.5223C151.789 18.58 151.789 18.6522 151.756 18.7388C151.724 18.8399 151.651 18.9265 151.538 18.9987C151.441 19.0564 151.352 19.0998 151.271 19.1286C150.785 19.3163 150.324 19.3957 149.887 19.3668H149.669L145.615 19.4101C144.87 19.4101 144.126 19.4101 143.381 19.4101H143.211C142.888 19.4101 142.548 19.4246 142.192 19.4535C141.804 19.4968 141.504 19.6772 141.294 19.9949C141.148 20.1825 141.043 20.3702 140.978 20.5579C140.088 22.3048 139.238 24.0661 138.429 25.8419C137.636 27.6177 136.973 29.379 136.439 31.1259C135.969 32.5263 135.751 33.8617 135.783 35.1322C135.832 35.8396 136.002 36.3954 136.293 36.7997C136.601 37.1895 137.078 37.3483 137.725 37.2761C138.891 37.1173 139.91 36.7708 140.784 36.2366C141.658 35.688 142.451 35.0961 143.163 34.4608C143.843 33.8256 144.522 33.3059 145.202 32.9016C145.51 32.7428 145.704 32.6995 145.785 32.7717C145.882 32.8295 145.922 32.9305 145.906 33.0749C145.89 33.2048 145.849 33.3348 145.785 33.4647C145.639 33.7534 145.445 34.0277 145.202 34.2876C144.975 34.533 144.83 34.6918 144.765 34.764L144.717 34.8073C144.069 35.5003 143.26 36.1933 142.289 36.8863C141.334 37.5648 140.315 38.1207 139.23 38.5538C138.146 38.9724 137.11 39.1529 136.123 39.0952C134.764 38.9364 133.849 38.4455 133.38 37.6226C132.927 36.7852 132.749 35.7963 132.846 34.6557L133.065 32.7067Z" fill="#AC18CA"/>
<path d="M121.85 33.2694C122.06 33.6303 121.712 34.1934 120.806 34.9585C119.9 35.7093 118.306 36.626 116.024 37.7088C115.166 38.0264 114.543 38.2791 114.154 38.4668C113.766 38.6544 113.483 38.8927 113.305 39.1814C113.127 39.4701 112.933 39.9177 112.722 40.5241C112.544 40.9716 112.31 41.5707 112.018 42.3215C111.63 43.2454 111.241 44.1983 110.853 45.18C110.141 47.1868 109.291 49.1647 108.304 51.1137C107.333 53.0771 106.071 54.7879 104.517 56.2461C102.964 57.7042 100.965 58.6715 98.5214 59.1479C96.0615 59.5666 93.6826 59.6316 91.3846 59.3428C89.0865 59.0541 86.837 58.4838 84.6361 57.632C83.746 57.2711 82.945 56.7947 82.2329 56.2028C81.0515 55.12 80.9625 53.9073 81.9659 52.5646C82.4999 51.9005 83.123 51.3014 83.835 50.7672C85.2592 49.7422 86.748 48.8037 88.3016 47.952C91.1985 46.3927 94.16 44.9635 97.1863 43.6641C100.213 42.3648 103.271 41.1088 106.362 39.896C106.573 39.8094 106.807 39.7156 107.066 39.6145C107.908 39.268 108.774 38.9215 109.664 38.575C110.279 38.3729 110.691 38.0048 110.902 37.4706C110.966 37.2829 110.983 37.1097 110.95 36.9509C110.918 36.8498 110.853 36.7921 110.756 36.7776C110.675 36.7632 110.578 36.7848 110.465 36.8426C110.157 37.0014 109.842 37.1819 109.518 37.384C109.34 37.4706 109.146 37.5789 108.935 37.7088C107.819 38.2863 106.662 38.5389 105.464 38.4668C103.571 38.4668 102.608 37.7088 102.575 36.1929C102.543 34.9513 102.778 33.7747 103.279 32.663C103.797 31.5514 104.525 30.5047 105.464 29.523C105.561 29.4219 105.699 29.3425 105.877 29.2848C106.055 29.2126 106.233 29.162 106.411 29.1332C106.443 29.1332 106.484 29.1187 106.532 29.0899C106.888 29.061 107.163 29.1404 107.358 29.3281C107.552 29.5157 107.592 29.754 107.479 30.0427C107.268 30.4469 107.058 30.8584 106.848 31.2771C106.67 31.5947 106.492 31.9123 106.314 32.2299C105.602 33.4715 105.278 34.7709 105.343 36.1279C105.375 36.4167 105.513 36.626 105.755 36.756C106.014 36.8859 106.306 36.8859 106.629 36.756C107.584 36.4095 108.418 35.9186 109.13 35.2834C111.055 33.7242 112.641 31.9267 113.887 29.8911C114.065 29.6024 114.268 29.3569 114.494 29.1548C114.737 28.9527 115.053 28.8372 115.441 28.8083C115.943 28.765 116.323 28.8661 116.582 29.1115C116.857 29.3425 116.938 29.6529 116.825 30.0427C116.372 31.342 115.894 32.6269 115.393 33.8974C115.36 33.9985 115.32 34.0923 115.271 34.1789C115.142 34.4677 115.02 34.7709 114.907 35.0885C114.794 35.4061 114.737 35.6876 114.737 35.933C114.737 36.164 114.85 36.2795 115.077 36.2795C115.967 36.1207 117.262 35.4855 118.961 34.3738C120.676 33.2622 121.639 32.894 121.85 33.2694ZM109.13 41.9533C109.13 41.8811 109.154 41.8162 109.202 41.7584C109.299 41.5996 109.356 41.4264 109.372 41.2387C109.389 41.051 109.332 40.8561 109.202 40.654C109.089 40.654 109 40.654 108.935 40.654C108.709 40.6973 108.507 40.7478 108.329 40.8056C107.972 40.9355 107.616 41.0799 107.26 41.2387C104.412 42.4081 101.564 43.6136 98.7156 44.8552C95.8673 46.0968 93.0757 47.4178 90.3407 48.8182C88.6739 49.67 87.1041 50.6661 85.6314 51.8067C84.4338 52.7595 83.8593 53.5896 83.9079 54.2971C83.9564 55.0189 84.6604 55.6686 86.0198 56.2461C89.1108 57.6754 92.4365 58.2601 95.9968 58.0002C98.4243 57.7836 100.399 56.9679 101.92 55.5531C103.425 54.1383 104.655 52.4419 105.61 50.464C106.581 48.5006 107.422 46.5371 108.134 44.5737C108.442 43.6497 108.774 42.7762 109.13 41.9533Z" fill="#AC18CA"/>
<path d="M168.556 57.9763H166.881V50.5646H168.498V52.6595L168.633 52.6754C169.094 51.0566 170.018 50.4852 171.404 50.4852H171.75V52.0088H171.288C169.345 52.0088 168.556 52.6437 168.556 54.3101V57.9763Z" fill="#84789C"/>
<path d="M160.996 51.4692C159.417 51.4692 158.455 52.1993 158.263 53.6753H163.517C163.44 52.2628 162.651 51.4692 160.996 51.4692ZM161.072 58.1508C158.282 58.1508 156.569 56.786 156.569 54.326C156.569 51.8501 158.32 50.3741 161.034 50.3741C163.728 50.3741 165.075 51.739 165.075 53.7864C165.075 54.0086 165.056 54.3418 165.018 54.6751H158.244C158.378 56.1829 159.34 57.0081 161.072 57.0081C162.689 57.0081 163.247 56.3416 163.536 55.5163L164.998 55.8496C164.556 57.2621 163.401 58.1508 161.072 58.1508Z" fill="#84789C"/>
<path d="M148.559 53.7388V57.9763H146.885V50.5646H148.521V52.485H148.694C149.194 51.1677 150.387 50.3741 151.946 50.3741C153.948 50.3741 154.852 51.4534 154.852 53.0722V57.9763H153.178V53.4055C153.178 52.3897 152.678 51.6279 151.234 51.6279C149.637 51.6279 148.559 52.4691 148.559 53.7388Z" fill="#84789C"/>
<path d="M138.317 53.7388V57.9763H136.642V50.5646H138.278V52.485H138.451C138.952 51.1677 140.145 50.3741 141.704 50.3741C143.705 50.3741 144.61 51.4534 144.61 53.0722V57.9763H142.935V53.4055C142.935 52.3897 142.435 51.6279 140.992 51.6279C139.394 51.6279 138.317 52.4691 138.317 53.7388Z" fill="#84789C"/>
<path d="M129.98 57.024C131.635 57.024 132.694 56.2622 132.694 55.2147V54.8021H130.057C128.883 54.8021 128.21 55.183 128.21 55.9131C128.21 56.5003 128.652 57.024 129.98 57.024ZM132.771 57.9763V56.2146H132.598C132.155 57.4367 131 58.135 129.403 58.135C127.709 58.135 126.613 57.5001 126.613 56.0718C126.613 54.7862 127.613 53.8499 129.807 53.8499H132.694V53.2468C132.694 52.1358 132.174 51.5327 130.712 51.5327C129.499 51.5327 128.826 52.0247 128.537 53.0087L126.959 52.6913C127.325 51.2629 128.614 50.39 130.769 50.39C133.271 50.39 134.368 51.3899 134.368 53.2309V57.9763H132.771Z" fill="#84789C"/>
<path d="M124.712 47.7872V57.9763H123.038V47.7872H124.712Z" fill="#84789C"/>
<path d="M116.992 56.9447C118.685 56.9447 119.493 56.0559 119.493 54.2784C119.493 52.485 118.704 51.6279 116.992 51.6279C115.375 51.6279 114.336 52.5484 114.336 54.0086V54.5799C114.336 55.9765 115.375 56.9447 116.992 56.9447ZM121.148 54.2784C121.148 56.8018 119.859 58.1667 117.742 58.1667C115.991 58.1667 114.894 57.2462 114.451 55.9765H114.336V60.4045H112.661V50.5646H114.336V52.5167H114.471C114.913 51.247 115.933 50.3741 117.665 50.3741C119.917 50.3741 121.148 51.7708 121.148 54.2784Z" fill="#84789C"/>
</g>
<defs>
<linearGradient id="paint0_linear_502_11063" x1="32.4938" y1="52.5723" x2="64.3871" y2="-13.3679" gradientUnits="userSpaceOnUse">
<stop stop-color="#AC18CA"/>
<stop offset="0.0806988" stop-color="#A275AC"/>
<stop offset="0.156422" stop-color="#767CA1"/>
<stop offset="0.225051" stop-color="#518398"/>
<stop offset="0.300774" stop-color="#358791"/>
<stop offset="0.38" stop-color="#218B8C"/>
<stop offset="0.47" stop-color="#158D89"/>
<stop offset="0.613392" stop-color="#118E88"/>
<stop offset="1" stop-color="#AC18CA"/>
</linearGradient>
<clipPath id="clip0_502_11063">
<rect width="172" height="60.1399" fill="white"/>
</clipPath>
</defs>
</svg>
